<?xml version="1.0" encoding="UTF-8"?>
<svg id="Calque_2" data-name="Calque 2" xmlns="http://www.w3.org/2000/svg" viewBox="0 0 501.69 552.26">
  <defs>
    <style>
      .cls-1 {
        fill: #fff;
        stroke-width: 0px;
      }
    </style>
  </defs>
  <g id="logo">
    <g>
      <path class="cls-1" d="M328.13,247.83c5.8-2.48,10.58-6.62,15.72-10.18s11.18-6.09,17.53-7.6,12.86-2.33,19.23-3.77,13.01-3.64,19.55-5.35c3.68-.96,7.42-1.81,11.21-2.26,1.95-.23,3.9-.35,5.86-.35.91,0,1.82.03,2.72.09.59.04,1.8-.05,2.14.54.97,1.67,3.57.16,2.59-1.51-.76-1.3-2.06-1.76-3.49-1.92-1.76-.2-3.56-.22-5.32-.17-3.53.1-7.04.59-10.5,1.29-7.15,1.44-14.07,3.79-21.11,5.66-13.05,3.47-27.37,3.69-39.15,10.95-6.27,3.86-11.67,9.08-18.51,12.01-1.77.76-.24,3.34,1.51,2.59h0Z"/>
      <path class="cls-1" d="M329.85,294.44c4.09-1.32,7.37-4.49,11.65-5.25s8.92.19,13.28.29c8.43.18,17-.91,24.77-4.35,4-1.77,7.58-4.25,10.89-7.09,3.54-3.04,6.93-6.32,10.11-9.74,6.02-6.5,10.63-14.04,14.36-22.04,2.05-4.4,3.87-8.9,5.62-13.42s4.35-9.62,4.1-14.71c-.09-1.92-3.1-1.93-3,0,.22,4.38-1.99,8.68-3.52,12.69-1.51,3.95-3.07,7.88-4.8,11.75-3.46,7.75-7.6,15.28-13.19,21.72-2.93,3.37-6.15,6.49-9.43,9.51s-6.66,5.74-10.6,7.76c-7.32,3.75-15.69,4.97-23.84,4.94-4.81-.02-9.71-.97-14.5-.36-2.29.3-4.38,1.07-6.4,2.18s-4.04,2.5-6.31,3.23c-1.83.59-1.05,3.49.8,2.89h0Z"/>
      <path class="cls-1" d="M326.3,295.16c2.61,2.26,5.53,4.03,8.74,5.29l.4-2.95c-1.62-.04-3.04-.29-4.69-.85-1.44-.49-2.88-1.26-4.22-2.25-.63-.47-1.7-.13-2.05.54-.41.78-.14,1.55.54,2.05,3.01,2.21,6.7,3.42,10.42,3.51.75.02,1.38-.58,1.47-1.3.11-.79-.37-1.37-1.07-1.65-.58-.23-1.24-.52-1.93-.86s-1.33-.7-1.97-1.09c-1.33-.81-2.41-1.6-3.52-2.57-.61-.53-1.52-.6-2.12,0-.54.54-.61,1.59,0,2.12h0Z"/>
      <path class="cls-1" d="M324.57,296.28c1.33,6.91.33,13.96.35,20.93.01,3.43.28,6.89,1.11,10.22s2.07,6.19,3.46,9.13,2.88,5.77,4.2,8.71c1.38,3.1,2.48,6.32,3.36,9.6,1.7,6.27,2.62,12.73,3.34,19.17s1.31,13.29,2.28,19.89c.99,6.73,2.55,13.29,4.75,19.73,2.25,6.56,4.96,12.95,7.37,19.45s4.41,13.07,5.78,19.85c2.73,13.58,3.63,29.05-4.14,41.22-1.04,1.63,1.55,3.14,2.59,1.51,6.84-10.71,7.34-23.97,5.67-36.21-.95-7-2.53-13.91-4.71-20.63s-4.94-13.29-7.46-19.92-4.59-12.93-5.92-19.68-1.96-13.25-2.65-19.91-1.42-13.51-2.8-20.16c-1.35-6.49-3.48-12.66-6.38-18.63-1.61-3.3-3.33-6.56-4.62-10-1.39-3.73-2.08-7.55-2.21-11.52-.26-7.88,1.01-15.76-.49-23.59-.36-1.89-3.26-1.09-2.89.8h0Z"/>
      <path class="cls-1" d="M357.07,493.6c-3.19,6.24-8.27,11.18-13.91,15.24-6.13,4.41-12.82,8.07-19.51,11.55-14.43,7.5-29.54,13.61-44.94,18.81-8,2.71-16.32,5.12-23.21,10.19-1.54,1.13-.04,3.74,1.51,2.59,6.2-4.56,13.55-6.9,20.77-9.31,7.84-2.61,15.6-5.45,23.25-8.58,7.56-3.09,15.01-6.45,22.28-10.16s13.83-7.26,20.21-11.69,12.49-9.99,16.14-17.12c.88-1.72-1.71-3.24-2.59-1.51h0Z"/>
      <path class="cls-1" d="M185,290.77c-.47,2.06-1.78,3.58-3.7,4.44-1.61.72-.43,3.11,1.16,2.74,2.49-.57,4.87-1.53,7.07-2.84l-2.26-1.3c-.92,8.49,1.57,16.78,1.92,25.22.17,4.12-.34,8.1-1.65,12.01s-3.17,7.45-4.98,11.07c-3.69,7.38-6.33,14.95-8.22,22.97s-3.35,16.42-5.76,24.45c-2.76,9.19-6.89,17.95-8.81,27.39-.38,1.88,2.51,2.69,2.89.8,1.72-8.46,5.21-16.38,7.91-24.55s4.16-16.24,6-24.43,4.16-16.18,7.9-23.76,7.37-14.34,7.72-22.56c.41-9.61-2.98-18.99-1.93-28.62.13-1.16-1.36-1.83-2.26-1.3-1.99,1.19-4.09,2.02-6.35,2.54l1.16,2.74c2.57-1.15,4.45-3.5,5.08-6.23.43-1.88-2.46-2.68-2.89-.8h0Z"/>
      <path class="cls-1" d="M160.44,416.24c-2.05,6.63-4.11,13.25-6.16,19.88-1.91,6.16-3.8,12.39-4.27,18.86-.81,11.09,2.81,22.11,8.64,31.45,12.82,20.54,35.02,31.68,55.72,42.64,13.42,7.1,26.67,14.52,39.75,22.24,1.67.98,3.18-1.61,1.51-2.59-11.35-6.7-22.83-13.17-34.43-19.4-10.62-5.7-21.45-11.05-31.63-17.54-9.62-6.13-18.71-13.4-25.49-22.66-6.4-8.75-10.95-19.18-11.18-30.14-.15-6.95,1.68-13.64,3.7-20.23,2.22-7.24,4.48-14.47,6.72-21.7.57-1.85-2.32-2.64-2.89-.8h0Z"/>
      <path class="cls-1" d="M183.05,249.24c-10.54-9.11-23.84-13.77-37.01-17.63-7.26-2.13-14.54-4.27-21.93-5.89-3.7-.81-7.44-1.47-11.21-1.91s-7.79-.88-11.54-.38c-2.97.4-4.82,2.59-4.88,5.56s1.22,5.43,2.48,7.88c3.44,6.69,6.91,13.37,10.79,19.82,7.14,11.84,15.87,22.97,27.39,30.83,6.31,4.31,13.9,8.16,21.64,8.63,4.41.27,8.85-.74,13.17-1.47s8.94-1.51,13.41-2.26c1.9-.32,1.09-3.21-.8-2.89-3.67.62-7.35,1.24-11.02,1.86s-7.31,1.4-10.99,1.71c-6.92.58-13.51-2.03-19.43-5.38-11.21-6.32-20.03-16.1-27.1-26.71-3.91-5.88-7.36-12.04-10.66-18.28-1.6-3.03-3.28-6.05-4.73-9.16-.76-1.62-1.99-4.76-.6-6.38.94-1.09,2.8-.87,4.08-.87,1.83,0,3.65.06,5.47.19,3.67.27,7.31.81,10.92,1.52,7.13,1.41,14.12,3.43,21.11,5.43,13.84,3.96,28.21,8.31,39.32,17.91,1.45,1.26,3.59-.86,2.12-2.12h0Z"/>
      <path class="cls-1" d="M327.64,247.27c6.28-11.88,17.49-20.17,29.6-25.48,14.42-6.31,30.21-8.57,45.55-11.49,14.78-2.81,29.8-6.31,42.83-14.15,10.86-6.53,20.04-15.71,26.85-26.38,6.82-10.68,11.2-22.9,12.54-35.51.16-1.54.28-3.09.35-4.64.09-1.93-2.91-1.93-3,0-.57,12.52-4.36,24.78-10.64,35.61-6.28,10.82-15.04,20.25-25.56,27.05-12.55,8.11-27.19,11.81-41.69,14.65-15.45,3.02-31.24,5.17-45.94,11.09-12.16,4.89-23.63,12.51-31,23.56-.9,1.35-1.72,2.74-2.48,4.17-.9,1.71,1.69,3.22,2.59,1.51h0Z"/>
      <path class="cls-1" d="M295.4,222.1l2.3,1.69c.48.35,1.44.24,1.82-.23,7.98-10.12,9.95-22.99,12.26-35.3,1.29-6.85,2.97-13.57,4.99-20.23s4.42-13.84,6.34-20.84c1.87-6.82,3.16-13.68,3.96-20.71.41-3.61.86-7.25,1.93-10.73.16-.51.31-1.58.7-1.98.18-.18.19-.14.55.1.3.2.56.52.79.79,1.01,1.21,1.62,2.7,2.05,4.19,1.97,6.77,2.08,14.25,1.68,21.24-.42,7.36-1.67,14.64-3.1,21.86-1.59,8.06-3.44,16.07-4.77,24.18-.61,3.72-1.64,7.87-.94,11.63.6,3.22,3.16,6.17,6.62,6.09,1.93-.04,1.93-3.04,0-3-3.57.08-3.98-4.38-3.76-6.98.31-3.73,1.03-7.45,1.7-11.13,1.35-7.31,3-14.56,4.4-21.85s2.59-14.73,2.91-22.19c.15-3.54.11-7.1-.2-10.63s-.73-7.06-1.77-10.4c-.81-2.59-2.48-6.32-5.43-6.98-3.5-.78-4.35,4-4.93,6.44-.83,3.52-1.19,7.13-1.6,10.71s-1.01,7.32-1.81,10.94c-3.11,14.19-8.67,27.7-11.84,41.87s-3.8,29.3-12.87,40.79l1.82-.23-2.3-1.69c-1.56-1.14-3.06,1.46-1.51,2.59h0Z"/>
      <path class="cls-1" d="M331.59,203.56c14.53-3.41,24.58-16.96,31.87-29.07,8.07-13.42,13.49-28.48,15.79-43.97.58-3.87.98-7.77,1.17-11.67.21-4.2.13-8.41.24-12.61s.45-8.53,1.61-12.64c.4-1.4.89-3.77,2.42-4.4s3.11.87,3.8,2.13c.93,1.7,1.33,3.73,1.82,5.58s.94,3.75,1.35,5.65c.83,3.86,1.49,7.76,1.96,11.69.93,7.83,1.15,15.74.68,23.62-.94,15.82-4.73,31.53-11.27,45.98-.8,1.76-1.64,3.51-2.52,5.23s1.72,3.24,2.59,1.51c7.37-14.52,11.96-30.32,13.68-46.51,1.72-16.16.51-32.67-3.7-48.38-.94-3.53-1.92-7.78-5.71-9.25s-6.41,1.5-7.54,4.8c-2.87,8.37-2.06,17.42-2.38,26.1-.59,16.19-4.68,32.26-11.81,46.8-3.52,7.18-7.76,14.08-12.73,20.35-4.62,5.84-10.11,11.33-16.98,14.44-1.66.75-3.4,1.31-5.17,1.72-1.88.44-1.08,3.33.8,2.89h0Z"/>
      <path class="cls-1" d="M383.11,186.53c16.02-2.44,31.19-9.96,42.9-21.17s20.03-27.13,24.71-43.19c5.36-18.4,6.64-37.67,7.62-56.71.23-4.48.34-9.01,1.19-13.43.43-2.23,1.02-4.45,1.94-6.53.72-1.64,1.72-3.96,3.78-4.09,4.3-.27,6.05,5.91,6.99,9.05,1.36,4.57,2.07,9.33,2.64,14.06,2.38,19.87,4.2,39.81,6.29,59.71.26,2.47.52,4.95.78,7.42.2,1.9,3.2,1.92,3,0-2.13-20.37-4.27-40.75-6.4-61.12-.52-4.94-1.04-9.9-1.97-14.79-.83-4.4-1.9-9.21-4.32-13.05-2.01-3.18-6.21-5.73-9.85-3.46-1.84,1.15-2.87,3.21-3.7,5.14s-1.49,4.07-1.94,6.2c-.93,4.49-1.13,9.1-1.36,13.67-.25,5-.52,10.01-.87,15-.7,9.92-1.74,19.84-3.67,29.61-3.39,17.13-9.64,34.2-20.86,47.81-10.59,12.84-25.36,21.98-41.56,25.79-2.02.48-4.06.86-6.11,1.18-1.9.29-1.09,3.18.8,2.89h0Z"/>
      <path class="cls-1" d="M479.05,68.71c5.07-12.31,4.66-25.83,3.73-38.86-.47-6.51-1.29-13.1-1.2-19.63.01-1.1.43-4.92,2.29-4.22,1.16.43,2.11,2.22,2.74,3.17.86,1.29,1.62,2.64,2.29,4.03,2.61,5.42,3.82,11.45,4.71,17.36,1.04,6.86,1.84,13.78,2.53,20.69,1.42,14.24,2.02,28.67.26,42.91-1.78,14.39-6.07,28.6-13.85,40.92-1.03,1.64,1.56,3.14,2.59,1.51,15.52-24.6,16.84-54.74,14.23-82.89-.69-7.45-1.58-14.9-2.63-22.31-.9-6.36-2.13-12.71-4.75-18.62-1.5-3.39-6.61-13.68-11.42-8.6-1.79,1.89-2.04,4.75-1.97,7.21.1,3.45.32,6.89.57,10.33,1.12,15.39,3.02,31.51-3.02,46.18-.73,1.78,2.17,2.56,2.89.8h0Z"/>
      <path class="cls-1" d="M298.66,220.49c-11.24-6.95-23.51,1.57-34.67,3.9-12.68,2.65-24.87-4.1-37.4-4.84-6.17-.36-12.61.65-17.7,4.36-1.54,1.13-.05,3.73,1.51,2.59,9.47-6.91,21.89-3.42,32.23-.88,6.05,1.48,12.33,2.85,18.59,2.21s11.89-3.28,17.79-5.18,12.63-2.98,18.13.42c1.65,1.02,3.15-1.58,1.51-2.59h0Z"/>
      <path class="cls-1" d="M210.5,224.02c-6.32-27.52-11.97-55.19-16.93-82.98-.63-3.56-1.23-7.12-1.87-10.67-.41-2.32-1.22-4.92-3.63-5.85-2.76-1.07-5.52.86-7.12,3s-2.75,4.93-3.33,7.65c-1.28,5.95-.52,12.13.46,18.06,1.08,6.53,2.7,12.96,4.13,19.43,1.58,7.12,2.97,14.34,3.05,21.66.04,3.52-.15,7.14-.97,10.57-.58,2.46-1.68,5.43-4.23,6.45-1.77.71-1,3.61.8,2.89,4.98-1.99,6.33-7.44,6.96-12.26.82-6.28.4-12.62-.54-18.86-1.9-12.65-6.24-24.93-7.2-37.73-.4-5.38-.13-11.54,3.23-16.04.68-.91,1.88-2.17,3.14-2.12s1.71,1.26,1.99,2.27c.86,3.05,1.16,6.33,1.71,9.45,2.4,13.58,4.96,27.13,7.68,40.64,3.05,15.13,6.3,30.21,9.76,45.25.43,1.88,3.33,1.08,2.89-.8h0Z"/>
      <path class="cls-1" d="M181.33,211.49c-13.56-5.37-25.16-15.34-32.56-27.91-4.29-7.29-7.58-15.26-10.62-23.14s-5.43-16.37-6.7-24.96-1.68-17.3-1.94-25.98c-.1-3.5.25-7.4-.87-10.78-.97-2.92-3.47-5.25-6.73-4.65s-5.5,3.72-6.7,6.55c-1.58,3.72-2.36,7.79-2.74,11.8-.78,8.33.61,16.7,2.65,24.76,2.16,8.48,4.95,16.79,7.13,25.27s3.99,17.03,5.42,25.66c.36,2.14.69,4.28,1,6.42.28,1.9,3.17,1.09,2.89-.8-1.22-8.42-2.79-16.78-4.71-25.07s-4.3-16.37-6.68-24.5-4.48-16.01-4.86-24.3c-.19-4.07.03-8.17.87-12.15.71-3.36,1.66-7.35,4.38-9.7,1.02-.88,2.37-1.42,3.63-.68,1.14.67,1.58,2.07,1.84,3.28.33,1.51.32,3.07.36,4.6.05,2.15.11,4.29.18,6.44.28,8.39.78,16.79,2.05,25.1s3.52,16.4,6.55,24.26,6.11,15.33,10.1,22.48c6.94,12.45,17.68,22.68,30.55,28.84,1.55.74,3.12,1.42,4.71,2.05,1.8.71,2.57-2.19.8-2.89h0Z"/>
      <path class="cls-1" d="M128.53,190.1c-15.17-2.38-29.83-7.61-43.08-15.37-6.56-3.84-12.77-8.29-18.5-13.29s-11.7-11.05-15.83-17.9c-8.37-13.9-9.05-30.76-8.36-46.54.4-9.1,1.23-18.18,1.29-27.29.03-4.5-.13-9-.62-13.47-.32-2.93-1.08-6.65-3.96-8.17-3.55-1.87-6.06,1.62-7.51,4.35-1.93,3.66-3.57,7.48-4.91,11.39-2.82,8.22-4.13,16.82-4.36,25.5s.42,17.99,1.12,26.94,1.63,17.23,3.37,25.7c3.09,15.01,8.9,29.71,19.03,41.4,4.82,5.56,10.6,10.24,17.1,13.7,7.01,3.73,14.63,6.13,22.29,8.11s15.83,3.68,23.66,5.87,16.04,4.91,23.85,7.96c7.91,3.08,15.65,6.58,23.2,10.45,3.73,1.91,7.41,3.92,11.04,6.02,3.04,1.76,6.06,3.63,8.56,6.14,2.23,2.23,3.93,4.97,4.05,8.19.07,1.92,3.07,1.93,3,0-.26-6.94-5.8-11.76-11.26-15.22-6.89-4.37-14.3-8.08-21.67-11.55-15.01-7.06-30.69-12.67-46.79-16.68-15.09-3.76-31.13-6.35-44.18-15.37-11.9-8.23-20-21.09-24.79-34.54-5.74-16.14-7.14-33.4-8.15-50.38-.53-9.01-.88-18.12.38-27.08,1.15-8.18,3.63-16.2,7.33-23.59.7-1.39,1.5-3.72,2.92-4.55,1.27-.74,2.2.61,2.71,1.62.75,1.5.91,3.16,1.07,4.8.22,2.2.36,4.4.43,6.61.32,9.02-.36,18.03-.89,27.02-.92,15.84-1.28,32.42,4.98,47.33,3.1,7.37,7.86,13.75,13.44,19.43s11.18,10.27,17.4,14.59c12.35,8.57,26.29,14.91,40.87,18.58,3.62.91,7.27,1.65,10.96,2.22,1.89.3,2.7-2.59.8-2.89h0Z"/>
      <path class="cls-1" d="M26.52,72.02c-4.97-15.2-6.98-31.27-5.83-47.22.25-3.51,1.24-7.59-.57-10.85-1.52-2.72-5.07-4.33-7.83-2.42-1.29.89-2.11,2.26-2.73,3.66-.78,1.77-1.47,3.58-2.14,5.39-1.36,3.71-2.54,7.48-3.53,11.31C-.15,47.49-.63,63.54.59,79.52c1.05,13.76,3.39,27.51,7.77,40.61s10.57,25.04,19.3,35.42c1.12,1.33,2.27,2.62,3.46,3.88,1.33,1.41,3.45-.72,2.12-2.12C15.25,138.24,7.09,112.15,4.25,86.56c-1.63-14.67-2.06-29.74.47-44.32,1.3-7.48,3.31-14.84,6-21.94.69-1.83,2.09-7.59,5.03-6.48,3.36,1.27,2.34,6.21,2.11,8.89-1.5,16.86.51,34.02,5.77,50.11.6,1.83,3.5,1.04,2.89-.8h0Z"/>
      <path class="cls-1" d="M321.79,258.42c11.56-.62,19.47-8.07,29.21-13.25,5.16-2.75,10.69-3.06,16.36-3.92,7.05-1.07,13.9-2.88,20.6-5.31,7.2-2.61,4.09-14.21-3.19-11.57-6.13,2.22-12.41,3.97-18.85,5.04-5.86.97-11.63,1.28-17.17,3.62-8.95,3.79-16.92,12.86-26.97,13.4-7.68.41-7.73,12.41,0,12h0Z"/>
      <path class="cls-1" d="M363.31,240.19c18.42-2.3,36.4-6.46,53.85-12.82,7.2-2.62,4.09-14.23-3.19-11.57-16.38,5.97-33.35,10.24-50.66,12.4-7.56.94-7.66,12.95,0,12h0Z"/>
      <path class="cls-1" d="M418.7,228.5c7.72,0,7.73-12,0-12s-7.73,12,0,12h0Z"/>
      <path class="cls-1" d="M408.05,225.48c-.38,5.75-3.57,11-6.38,15.9-2.6,4.54-5.46,8.93-8.58,13.14-5.93,8-13.2,17.02-22.37,21.41-9.86,4.72-21.18,1.19-31.62,2.24-9.32.94-17.9,4.39-23.16,12.47-4.23,6.49,6.16,12.51,10.36,6.06,5.74-8.81,19.21-6.66,28.06-6.37,11.33.37,21.18-2.02,30.16-9.11,8.43-6.65,15.39-15.38,21.47-24.18,6.43-9.3,13.29-20.01,14.06-31.54.51-7.71-11.49-7.68-12,0h0Z"/>
      <path class="cls-1" d="M404.82,225.16c-12.84,15.92-26.28,32.61-44.25,42.97-8.76,5.05-17.99,7.36-27.85,9.19s-19.85,4.39-27.43,11.66l8.49,8.49c26.26-26.58,64.07-37.12,91.24-62.7,5.72-5.39-2.63-13.3-8.49-8.49-18.57,15.26-37.14,30.52-55.71,45.78-5.21,4.28,1.73,13.4,7.27,9.42,9.17-6.58,18.33-13.16,27.5-19.74,6.19-4.44,15.22-14.01,5.92-20.72-7.1-5.12-18.38.85-25.16,4.05-8.97,4.23-17.1,10.09-24.2,17-5.09,4.95,1.35,12.33,7.27,9.42,14.78-7.25,28.07-17.17,39.25-29.25,3.92-4.23.12-11.85-5.84-10.03-19.07,5.84-35.24,17.32-47.39,33.07-3.14,4.07,2.1,10.58,6.78,8.81,17.73-6.71,33.76-16.63,47.55-29.67,3.49-3.3,1.06-10.89-4.24-10.24-15.55,1.91-29.74,9.15-39.62,21.48-3.4,4.24-.43,12.1,5.84,10.03,15.33-5.07,29.66-12.48,42.51-22.29,5.04-3.84,2.46-12.99-4.62-10.97-29.09,8.29-55.62,23.99-76.86,45.53-3.92,3.97,0,12.33,5.84,10.03,15.42-6.08,28.19-16.53,36.87-30.71,3.2-5.23-3.09-11.09-8.21-8.21-17.79,10-32.71,24.17-43.77,41.3-3.85,5.97,4.52,11.61,9.42,7.27,12.66-11.22,25.44-24.26,26.04-42.19.14-4.33-5.29-7.77-9.03-5.18-13.54,9.4-24.45,21.82-31.59,36.71-3.02,6.31,4.1,11.58,9.42,7.27,10.36-8.39,16.24-20.64,17.17-33.84.3-4.3-5.42-7.81-9.03-5.18-12.01,8.74-20.68,20.55-25.12,34.77-1.74,5.58,6.05,10.37,10.03,5.84,11.25-12.82,19.51-27.66,24.31-44.04,1.8-6.15-5.7-9.47-10.03-5.84-15.32,12.84-27.51,29.12-35.49,47.45-2.52,5.79,4.35,12.64,9.42,7.27,14.61-15.46,25.55-33.73,32.36-53.88,2.13-6.31-5.8-9.13-10.03-5.84-16.71,13.03-28.92,30.87-35.52,50.97-1.91,5.81,5.92,9.94,10.03,5.84,8.29-8.29,15.56-17.63,21.36-27.83,4.04-7.1,12.31-20.74,1.83-26.42-2.57-1.39-5.12-.8-7.27.94-14.42,11.66-24.9,27.32-30.62,44.93-2.01,6.2,5.78,9.33,10.03,5.84,6.11-5.02,11.25-10.87,15.65-17.44,4.31-6.43-6.08-12.45-10.36-6.06-3.83,5.72-8.46,10.64-13.77,15.01l10.03,5.84c5.12-15.75,14.69-29.25,27.54-39.64l-7.27.94c-.45-1.48-.73-1.78-.86-.91-.19.87-.49,1.7-.91,2.49-.67,1.57-1.51,3.12-2.3,4.64-1.86,3.57-3.91,7.05-6.12,10.41-4.47,6.82-9.67,13.02-15.43,18.77l10.03,5.84c5.98-18.24,17.33-33.9,32.43-45.67l-10.03-5.84c-6.13,18.16-16.11,34.66-29.27,48.58,3.14,2.42,6.28,4.85,9.42,7.27,7.63-17.53,18.96-32.74,33.61-45.02l-10.03-5.84c-4.21,14.34-11.36,27.51-21.23,38.75l10.03,5.84c3.45-11.04,10.23-20.77,19.61-27.59l-9.03-5.18c-.71,10.18-5.79,18.99-13.65,25.36,3.14,2.42,6.28,4.85,9.42,7.27,6.23-13,15.41-24.16,27.28-32.41l-9.03-5.18c-.48,14.34-12.56,24.88-22.52,33.71,3.14,2.42,6.28,4.85,9.42,7.27,9.97-15.44,23.46-28,39.47-37l-8.21-8.21c-6.93,11.34-17.29,20.31-29.7,25.2l5.84,10.03c19.82-20.11,44.4-34.7,71.56-42.44l-4.62-10.97c-12.02,9.17-25.28,16.33-39.64,21.08l5.84,10.03c7.76-9.68,18.69-16.44,31.13-17.96l-4.24-10.24c-12.21,11.55-26.52,20.63-42.25,26.58l6.78,8.81c10.14-13.15,24.38-22.71,40.22-27.55l-5.84-10.03c-10.56,11.4-22.88,20.53-36.83,27.37,2.42,3.14,4.85,6.28,7.27,9.42,4.62-4.49,9.61-8.39,15.17-11.65,2.62-1.53,5.32-2.95,8.1-4.17s6.84-1.73,9.46-3.36l1.25-.31c-.22-3.31-.85-4.05-1.88-2.21-.99.28-2.33,1.89-3.2,2.51-2.88,2.07-5.76,4.14-8.64,6.2-6.28,4.51-12.57,9.02-18.85,13.53l7.27,9.42c18.57-15.26,37.14-30.52,55.71-45.78l-8.49-8.49c-27.14,25.55-64.89,36.02-91.24,62.7-5.44,5.51,2.91,13.83,8.49,8.49,7.23-6.93,18-7.71,27.37-9.55,9.98-1.97,19.44-5.59,28.09-10.99,17.65-11.03,31.16-27.27,44.08-43.29,4.8-5.96-3.63-14.5-8.49-8.49h0Z"/>
      <path class="cls-1" d="M383.02,256.05c-4.55,5.77-9.8,10.91-15.84,15.11-2.66,1.85-3.88,5.26-2.15,8.21,1.54,2.63,5.54,4.01,8.21,2.15,6.9-4.8,13.06-10.39,18.27-16.99,2.01-2.54,2.48-6.01,0-8.49-2.08-2.08-6.47-2.56-8.49,0h0Z"/>
      <path class="cls-1" d="M316.65,259.82c1.76-4.05,3.87-7.83,6.39-11.45l-11.18-3.03-.06.55c-1.79,6.49,7.62,10.64,10.97,4.62.29-.8.78-1.45,1.47-1.93l-10.24-4.24.43-1.44,10.97,4.62c3.3-7.92,8.66-14.55,15.26-19.95,5.98-4.9-2.56-13.35-8.49-8.49-8.3,6.8-14.24,15.39-18.34,25.25-2.65,6.37,7.64,10.36,10.97,4.62.87-1.51,1.29-2.86,1.2-4.62-.25-5.14-6.4-7.98-10.24-4.24-1.34,1.3-2.44,2.73-3.35,4.36l10.97,4.62c.35-1.27.51-2.43.49-3.74-.08-6.24-7.89-7.78-11.18-3.03-2.52,3.63-4.63,7.41-6.39,11.45-3.06,7.01,7.28,13.13,10.36,6.06h0Z"/>
      <path class="cls-1" d="M328.79,243.01c8.07-12.68,23.22-19.31,35.83-26.51,6.35-3.62,1.71-11.89-4.62-10.97-11.8,1.73-22.88,8.4-32.44,15.25s-17.82,14.63-25.11,23.62c3.14,2.42,6.28,4.85,9.42,7.27,4.38-7.13,9.25-13.84,14.74-20.16,3.99-4.6.14-11.23-5.84-10.03-5.36,1.08-9.16,5.44-12.82,9.22-4.16,4.29-8.07,8.82-11.98,13.34,3.14,2.42,6.28,4.85,9.42,7.27,3.89-7.74,8.98-14.67,14.17-21.58,3.46-4.6-2.23-9.68-6.78-8.81-5.12.98-8.68,5.89-12.07,9.49-3.99,4.24-7.82,8.63-11.52,13.12,3.14,2.42,6.28,4.85,9.42,7.27,5.22-8.17,10.45-16.35,15.67-24.52,3.17-4.96-3.21-11.55-8.21-8.21-9.81,6.56-16.96,17.35-23.93,26.69l10.36,6.06c4.39-7.95,9.65-15.29,14.98-22.62,4.02-5.52-4.85-12.23-9.42-7.27s-9.24,9.3-14.37,13.44c-6.01,4.85,2.52,13.29,8.49,8.49,5.13-4.13,9.9-8.6,14.37-13.44-3.14-2.42-6.28-4.85-9.42-7.27-5.33,7.33-10.59,14.67-14.98,22.62-3.83,6.93,5.84,12.11,10.36,6.06,5.63-7.54,11.7-17.08,19.63-22.39l-8.21-8.21c-5.22,8.17-10.45,16.35-15.67,24.52-3.6,5.64,5.04,12.59,9.42,7.27,2.92-3.55,5.92-7.03,9.02-10.42,1.45-1.58,2.91-3.15,4.4-4.7,1.22-1.27,3.05-4.05,4.88-4.4l-6.78-8.81c-5.19,6.91-10.28,13.84-14.17,21.58-2.88,5.74,4.71,12.72,9.42,7.27,3.09-3.57,6.17-7.14,9.39-10.6,2.6-2.8,6.24-8.09,10.12-8.87l-5.84-10.03c-6.15,7.08-11.71,14.6-16.62,22.58-3.48,5.66,5.06,12.66,9.42,7.27,6.61-8.16,14.14-15.61,22.68-21.75s18.7-12.45,29.57-14.04l-4.62-10.97c-14.66,8.36-30.78,16.1-40.14,30.81-4.16,6.54,6.22,12.56,10.36,6.06h0Z"/>
      <path class="cls-1" d="M297.94,221.43c-16.71-4.84-31.32,6.44-47.8,5.1-13.81-1.12-31.92-10.11-43.74,1.24-5.58,5.36,2.91,13.84,8.49,8.49,4.23-4.06,13.15-1.67,18.16-.67,6.78,1.36,13.61,3.1,20.56,3.08,13.79-.04,27.44-9.64,41.14-5.67,7.43,2.15,10.6-9.42,3.19-11.57h0Z"/>
      <path class="cls-1" d="M228.24,233.02c11.31,1.2,20.89,8.86,32.24,10.5s22.23-.41,32.31-5.45l-6.06-10.36c-12.58,7.3-26.85,10.68-41.38,9.7s-28.23-8.98-41.69-1.08c-6.83,4.01-.85,13.39,6.06,10.36,13.65-5.99,27.71-2.99,41.57.45l1.6-11.79c-12.66-1.53-25.51-.83-37.93,2.16-5.02,1.21-11.43,2.57-11.37,8.97.06,5.69,5.66,8.81,10.61,9.91,11.98,2.66,25.65.38,37.68-1.05,13.15-1.56,26.11-4.03,38.52-8.75l-4.62-10.97c-22.31,12.63-48.36,12.71-73.28,11.95-4.45-.14-7.61,5.23-5.18,9.03,3.87,6.05,11.3,7.26,17.94,8.29,8.08,1.26,16.2,1.38,24.31.39,15.96-1.94,30.94-7.61,45.08-15.1l-6.06-10.36c-10.67,7.81-22.6,13.21-35.23,16.99-6.44,1.93-13.07,3.62-19.78,4.27-6.19.6-12.7.97-17.91-2.92-5.91-4.42-11.12,4.58-7.27,9.42,10.26,12.9,29.92,11.05,44.21,8.11,14.94-3.07,30.47-8.14,41.06-19.68,5.23-5.7-2.79-13.73-8.49-8.49-12.87,11.84-24.97,24.44-36.29,37.77-4.06,4.79,1.42,13.79,7.27,9.42,6.83-5.1,13.04-10.7,18.62-17.15,5.07-5.86-2.61-13.53-8.49-8.49-6.95,5.96-16.53,15.81-17.82,25.35-.64,4.73,2.01,9.41,6.82,10.57s9.21-1.27,12.81-3.97c6.76-5.08,16.42-18.27,7.46-25.91-8.6-7.33-19.2,6.42-22.66,13.18-3.96,7.73-7.08,20.38,3.93,23.82,9.38,2.94,18.76-6.3,23.01-13.67,4.36-7.56,4.58-21.55-7.13-22.24-9.14-.54-18.13,10.85-19.68,19.03-.97,5.14.77,10.82,5.26,13.82,5.31,3.54,11.59,1.58,16.73-1.23,7.7-4.21,22.45-15.18,16.44-25.39-1.35-2.3-4.2-3.45-6.78-2.76-7.24,1.94-13.57,6.72-17.14,13.37-2.86,5.33-5.46,14.38-.08,19.01,5.86,5.05,15.3-.31,20.65-3.82,6.36-4.17,13.42-10.26,14.59-18.19.44-2.98-.7-6.74-4.19-7.38-8.13-1.48-14.2,5.76-18.25,12.02-3.4,5.25-7.13,13.18-1.99,18.61,5.43,5.73,12.91,1.72,17.66-2.52,5.62-5.01,10.4-11.54,9.81-19.43-.32-4.27-4.94-7.83-9.03-5.18-5.55,3.6-9.5,8.91-10.56,15.53-1,6.2,1.41,12.92,8.56,13.42,11.47.8,25.47-15.55,17.21-25.76-1.5-1.86-5.32-2.39-7.27-.94-6.62,4.93-12.96,18.29-3.14,23.73s17.64-8.17,18.71-16.15c.99-7.39-9.48-10.9-11.57-3.19-1.75,6.45-1.92,12.65-.96,19.23.76,5.19,8.69,5.68,10.97,1.43,2.69-5.03,3.54-10.26,4.22-15.87h-12c.37,3.72.75,7.44,1.12,11.15.78,7.81,10.99,7.6,12,0l1.54-11.59-11.79,1.6c.51,3.38.65,6.76.62,10.17h12v-11.61h-12c.31,3.14.44,6.25.39,9.41-.12,7.72,11.88,7.73,12,0,.05-3.16-.08-6.27-.39-9.41-.75-7.53-12-7.88-12,0v11.61c0,7.72,11.94,7.73,12,0,.04-4.52-.37-8.9-1.05-13.36-.44-2.94-3.94-4.66-6.58-4.3-3.2.43-4.8,2.88-5.2,5.89l-1.54,11.59h12c-.37-3.72-.75-7.44-1.12-11.15-.78-7.77-11.07-7.65-12,0-.41,3.41-.95,6.76-2.58,9.81l10.97,1.43c-.64-4.38-.19-8.61.96-12.85l-11.57-3.19c-.21,1.55-.44,3.11-1,4.59-.38,1-1.79,2.41-1.89,3.3-.88.72-.47,1.21,1.21,1.47,1.37,1.47,1.95,1.39,1.74-.23.84-.93.79-2.25,2.01-3.15l-7.27-.94c-1.44-1.79.23-2.64-1.22-.93-.55.65-.81,1.66-1.32,2.36-1.19,1.63-3.66,2.32-4.69,3.69-.94.17-.76.51.54,1,.86,1.12,1.24,1.16,1.15.14.35-.39.47-2.15.72-2.74.86-2.07,2.28-3.62,4.15-4.83l-9.03-5.18c.21,2.86-.7,4.88-2.49,7.1-.88,1.09-6.04,4.67-6.18,5.71l2.79,1.86c.22-.65.49-1.28.82-1.88.57-1.17,1.22-2.31,1.94-3.4.88-1.33,1.84-2.54,2.93-3.71.41-.44,3.25-2.52,1.77-2.79l-4.19-7.38c-.59,4.01-3.49,6.74-6.55,9.2-1.62,1.3-3.38,2.43-5.19,3.43-1.3.72-3.92,1.28-4.94,2.25-1.73.38-1.08,1.09,1.95,2.13.11-.82.29-1.63.54-2.42.52-1.66,1.33-3.27,2.39-4.66,2.18-2.85,5.12-4.62,8.53-5.53l-6.78-2.76c-.89-1.51-.05-1.44-1.54.35-.68.82-1.44,1.6-2.2,2.35-1.74,1.73-3.6,3.27-5.65,4.62-1.1.72-4.94,3.67-6.4,3.06-1.84-.77.9-4.69,1.76-5.83.96-1.27,4.23-3.33,4.74-4.69.35-.95-.46-.54-.78.02-.42.73-.49,1.9-.85,2.71-1,2.22-2.58,4.25-4.3,5.95-.96.95-4.12,3.92-4.93,3.97.02.63.06.6.11-.09.04-.45.13-.89.27-1.32.37-1.29.71-2.58,1.23-3.82.92-2.18,2.22-4.31,3.68-6.15.67-.84,1.39-1.62,2.15-2.38.56-.57,1.14-1.11,1.75-1.62l-3.45-1.13c-.51.24-1.38,2.57-1.79,3.13-.79,1.07-1.81,2.03-2.81,2.9-.81.7-1.92,1.21-2.67,1.94-.5.36-1.06.63-1.66.8l2.85,2.01c1.14-.42,2.94-5.15,3.72-6.29,2.91-4.32,6.51-8.04,10.45-11.42l-8.49-8.49c-4.87,5.63-10.22,10.81-16.19,15.27l7.27,9.42c11.31-13.33,23.42-25.93,36.29-37.77l-8.49-8.49c-8.38,9.14-20.21,12.99-31.97,15.75-11.03,2.59-28.11,6.15-36.33-4.19l-7.27,9.42c11.85,8.87,30.54,4.44,43.53.84,14.75-4.08,29.1-10.11,41.5-19.18,6.13-4.49.91-14.05-6.06-10.36-11.12,5.88-22.8,10.56-35.21,12.84-6.05,1.11-12.24,1.5-18.38,1.23-3.11-.14-6.19-.45-9.24-1.03-1.54-.29-7.12-.82-8.07-2.31l-5.18,9.03c27.11.83,55.11.13,79.33-13.58,5.75-3.25,1.88-13.44-4.62-10.97-11.96,4.55-24.48,7.12-37.17,8.53-6.18.69-12.39,1.21-18.59,1.58-4.58.27-14.35,1.88-17.59-2.22l1.76,4.24-.04-1.35-1.76,4.24c-1.25.55-1.28.62-.08.21.88-.26,1.76-.5,2.64-.73,1.77-.46,3.55-.87,5.35-1.24,3.36-.68,6.75-1.16,10.17-1.44,7.01-.57,14.01-.35,20.99.5s8.05-10.18,1.6-11.79c-17.45-4.34-33.86-6.69-50.82.76l6.06,10.36c6.73-3.95,14.45-1.05,21.45.58s13.88,2.45,20.91,2.3c14.33-.29,28.32-4.31,40.7-11.49,6.74-3.91.81-13.79-6.06-10.36-9.16,4.57-19.77,5.69-29.64,2.88s-18.38-8.46-28.86-9.57c-7.67-.81-7.61,11.19,0,12h0Z"/>
      <path class="cls-1" d="M244.93,265.41c-.64,11.4-3.3,22.37-1.01,33.77,1.27,6.35,9.68,5.01,11.57,0,3.58-9.46,5.53-19.32,6.08-29.41.22-4.05-4-6.62-7.6-5.79-8.51,1.98-9.41,16.11-9.62,23.13-.19,6.36,1.02,22.28,11.36,19.1,8.17-2.52,8.81-16.8,8.06-23.6s-5.61-18.88-14.74-13c-7.46,4.8-8.86,18.03-9.47,25.98-.53,6.93,3.2,21.08,13.17,15.49,6.73-3.77,6.85-15.99,5.96-22.51-1.01-7.43-4.7-17.49-11.65-21.37-11.69-6.52-14.34,11.8-14.83,19-.59,8.72-.7,23.76,9.7,26.86,2.53.75,5.46-.5,6.78-2.76,4.14-7.12,2.79-16.93.67-24.52-1.94-6.93-5.58-14.72-13.38-16.22-3.35-.64-6.25.92-7.38,4.19-2.78,8.03-3.59,16.47-2.35,24.89,1.03,6.97,3.07,15.41,10.83,17.43,3.34.87,6.23-1.11,7.38-4.19,2.66-7.15,1.4-15.54-.19-22.81-1.33-6.07-3.48-15.28-9.44-18.65-7.54-4.26-11.64,4.04-13,10.01-1.77,7.75-2.03,15.81-.66,23.65,1,5.71,4.23,13.28,10.9,13.79,8.62.66,8.26-9.11,7.68-14.91-.8-8.09-2.54-16.17-5.76-23.66-2.71-6.32-9.4-11.49-16.25-7.37s-7.52,13.82-7.12,20.68c.47,8.13,2.18,16.6,7.78,22.79,2.31,2.55,6.1,2,8.49,0,6.47-5.41,5.32-18.24,4.8-25.72-.61-8.68-1.57-18.36-9.2-23.74-1.68-1.18-4.36-1.05-6.06,0-4.69,2.91-5.54,7.44-6.28,12.59-.83,5.84-1.58,11.71-1.72,17.61-.13,5.52.29,11.09,1.47,16.49,1.02,4.68,2.48,10.74,7.3,12.86,2.97,1.3,6.42.91,8.21-2.15,4.49-7.69,2.28-19.81.49-28.04s-4.98-20.05-14-22.78c-10.9-3.3-12.12,11.08-13.01,18.22-1.27,10.3-2.63,22.48.66,32.51.61,1.87,2.12,3.82,4.19,4.19l1.2.21c3.08.55,6.6-.8,7.38-4.19,1.89-8.23,2.22-16.52.74-24.85-1.17-6.56-3.21-15.08-9.79-18.22-2.45-1.17-5.26-1.05-7.27.94-3.73,3.68-4.31,9.14-5,14.11-.85,6.19-.97,12.33-.37,18.55.51,5.28,8.38,8.96,11.18,3.03,3.86-8.18,6.47-19.86-.52-27.12-3.83-3.98-9.88-.72-10.24,4.24-.15,1.97-.29,3.94-.44,5.91-.57,7.7,11.43,7.67,12,0,.15-1.97.29-3.94.44-5.91l-10.24,4.24c2.6,2.7-.04,9.8-1.36,12.58l11.18,3.03c-.42-4.39-.57-8.79-.22-13.2.21-2.76.12-9.04,2.08-10.97l-7.27.94c3.38,1.62,4.18,9.7,4.56,13.06.63,5.53.22,11.06-1.02,16.46l7.38-4.19-1.2-.21,4.19,4.19c-1.96-5.98-1.41-12.61-1.12-18.81.15-3.25.4-6.49.8-9.71.2-1.64.46-3.26.76-4.89.17-.94.36-1.88.57-2.82.7-1.99-.41-1.81-3.31.53-.05.42,1.67,2.33,1.91,2.81.58,1.14,1.02,2.34,1.44,3.54.99,2.82,1.76,5.72,2.35,8.65.66,3.29,1.02,6.62,1.12,9.97.07,2.35.63,5.85-.59,7.94l8.21-2.15c-1.16-.51-2.01-6.47-2.29-8.27-.55-3.53-.62-7.15-.54-10.71s.39-7.14.81-10.69c.14-1.19.4-8.62,1.25-9.14h-6.06c3.41,2.4,3.19,11.61,3.38,15.29.17,3.44,1.37,13-1.4,15.32h8.49c-2.77-3.06-3.54-7.79-4.05-11.75-.29-2.23-.4-4.55-.25-6.79.08-1.16.22-2.29.49-3.42.13-.56,1.51-3.34.02-2.48-1.05.6-.34.91.25,2.34.47,1.14.84,2.32,1.22,3.49.76,2.35,1.4,4.73,1.94,7.14s.98,5,1.24,7.53c.13,1.23.21,2.46.28,3.69.04.62.06,1.23.07,1.85-.09,1.56.19,1.26.84-.89l4.24-1.76c1.7-.03.71.7.58-.78-.1-1.09-.69-2.36-.89-3.47-.43-2.35-.57-4.75-.59-7.13-.03-2.75.13-5.5.59-8.21.2-1.18.45-2.35.74-3.5.74-3.01,2.55-3.73-2.18-2.89-4.34.77-3.16.11-1.9,2.39.51.93.85,1.93,1.19,2.93.9,2.6,1.62,5.28,2.17,7.98,1.03,5.06,1.83,10.6,0,15.53l7.38-4.19c-2.26-.59-2.61-11.05-2.64-12.73-.09-5.14.86-9.99,2.53-14.83l-7.38,4.19c3.69.71,4.72,6.52,5.45,9.58.91,3.83,2.2,9.91.09,13.53l6.78-2.76c.96.65.96.16-.02-1.46-.33-1.17-.59-2.35-.78-3.55-.35-2.48-.33-5.03-.24-7.52.1-3.1-.31-10.44,2.32-12.52l-4.24,1.76c-1.29.11-.19.28.59,1.37.56.79,1.05,1.63,1.51,2.49,1.15,2.12,1.91,4.39,2.39,6.76.42,2.1.55,4.25.41,6.39-.06.93-.17,1.82-.35,2.74-.32,1.65-1.47,2.76.24,2.42l4.62.6c-1.11-.6.36-8.47.53-9.43.32-1.88.73-3.74,1.22-5.58.43-1.61,1.74-3.86,1.9-5.43,1.26-1.77-.16-2.15-4.25-1.13.24.79.44,1.59.6,2.39.33,1.64.46,3.27.45,4.94-.01,2.33-.19,7.78-2.14,9.47l4.24-1.76-.97.04,4.24,1.76c-1.9-2.04-1.15-8.28-.96-10.84.13-1.78.38-3.51.74-5.26.24-1.13.52-2.25.84-3.36,1.03-1.74.74-2.14-.86-1.21l-7.6-5.79c-.49,9.06-2.44,17.74-5.65,26.22h11.57c-2.02-10.08.88-20.48,1.44-30.58.43-7.72-11.57-7.69-12,0h0Z"/>
      <path class="cls-1" d="M192.47,294.68c7.72,0,7.73-12,0-12s-7.73,12,0,12h0Z"/>
      <path class="cls-1" d="M192.09,296.6c7.72,0,7.73-12,0-12s-7.73,12,0,12h0Z"/>
      <path class="cls-1" d="M197.7,292.53v-.19c.03-.83-.14-1.6-.52-2.31-.24-.74-.66-1.39-1.24-1.93-.54-.59-1.19-1-1.93-1.24-.72-.38-1.49-.55-2.31-.52l-1.6.21c-1.02.29-1.9.8-2.65,1.54l-.94,1.21c-.54.94-.82,1.95-.82,3.03v.19c-.03.83.14,1.6.52,2.31.24.74.66,1.39,1.24,1.93.54.59,1.19,1,1.93,1.24.72.38,1.49.55,2.31.52l1.6-.21c1.02-.29,1.9-.8,2.65-1.54l.94-1.21c.54-.94.82-1.95.82-3.03h0Z"/>
      <path class="cls-1" d="M188.42,298.83c3.62,8.03,5.89,16.53,7.13,25.24l10.97-4.62-.98-1.29c-4.61-6.08-15.03-.1-10.36,6.06l.98,1.29c4.2,5.55,11.94,2.24,10.97-4.62-1.39-9.81-4.27-19.09-8.34-28.11-3.17-7.03-13.51-.93-10.36,6.06h0Z"/>
      <path class="cls-1" d="M191.53,317.15c.62,2.92.76,5.91.27,8.86l11.79,1.6c-.79-7.03,1.06-13.92-.18-20.89-1.35-7.59-12.92-4.37-11.57,3.19.5,2.8-.14,5.78-.43,8.56-.32,3.11-.17,6.04.18,9.14s2.02,5.51,5.2,5.89c2.7.32,6.08-1.32,6.58-4.3.87-5.2.84-10.08-.27-15.24-1.61-7.55-13.18-4.35-11.57,3.19h0Z"/>
      <path class="cls-1" d="M199.65,241.85c3.02,15.05-4.23,29.34-13.65,40.61-4.96,5.94,2.54,13.48,8.49,8.49,8.9-7.48,16.43-16.32,22.55-26.2l-11.18-3.03c-.31,4.07-2.04,7.95-2.47,12.05-.63,6.15,8.37,7.84,11.18,3.03,1.24-2.11,2.16-4.31,2.82-6.67,1.64-5.94-5.71-9.83-10.03-5.84-.64.71-1.4,1.28-2.26,1.71-6.54,4.08-.52,14.46,6.06,10.36,1.69-1.05,3.23-2.24,4.68-3.59l-10.03-5.84c-.4,1.46-.84,2.5-1.61,3.8l11.18,3.03c.42-4.1,2.15-7.89,2.47-12.05.48-6.21-8.24-7.78-11.18-3.03-5.6,9.05-12.52,16.92-20.67,23.77l8.49,8.49c12.38-14.82,20.67-32.66,16.73-52.29-1.52-7.57-13.09-4.36-11.57,3.19h0Z"/>
      <path class="cls-1" d="M190.11,242.09c3.79,8.34-.52,17.62-4.9,24.78-3.43,5.6-12.53,14.38-7.55,21.32l5.18-9.03c-6.42.42-12.84.92-19.24,1.51-5.76.53-8.37,7.87-3.03,11.18,2.94,1.82,5.88,2.17,9.21,1.29,6.47-1.69,5.25-12.01-1.6-11.79-5.36.17-9.58,1.42-14.46-1.43-4.52-2.65-8.29-6.52-12.55-9.55-4.79-3.41-11.7,3.42-8.21,8.21s7.39,9.12,12.07,12.84l7.27-9.42c-18.83-14.02-34.05-33.07-43.51-54.66l-5.18,9.03c14.76,1.26,29,5.61,42.94,10.44,6.94,2.41,14.26,4.54,20.8,7.91,3.13,1.62,5.99,3.54,8.51,6.01,1.78,1.74,5.63,5.35,5.19,8.15-1.08,6.78-12.64,2.53-16.26,1.1-6.08-2.4-11.8-5.81-17.07-9.66-11.36-8.29-18.97-19.78-29.21-29.13-4.45-4.06-11.42-.08-10.03,5.84s7.87,11.4,11.99,15.97c4.72,5.24,9.57,10.36,14.78,15.12,4.76,4.36,9.78,8.56,15.84,10.97,6.44,2.56,13.49,2.76,20.34,2.84l-5.18-9.03c-1.92,4.42-19.76-6.35-22.53-8.54-3.16-2.5-5.86-5.53-7.7-9.14-1.13-2.22-3.75-8.43-2.5-10.89l-5.18,2.97c3.9-.14,9.3,2.38,13.02,3.55,4.13,1.3,8.23,2.74,12.21,4.44,4.4,1.88,8.71,4.06,12.79,6.55,1.93,1.17,3.82,2.4,5.55,3.86.84.72,1.64,1.47,2.4,2.26.94,1.83,1.74,1.61,2.38-.67,1.86-1.47,1.8-2.24-.18-2.31-.98-.41-1.93-.88-2.84-1.43-1.97-1.11-3.81-2.43-5.62-3.77-3.42-2.52-6.67-5.27-10.26-7.54-7.24-4.57-15.58-6.98-22.72-11.74-4.78-3.19-11.89,3.39-8.21,8.21,5.5,7.19,14.11,12.22,21.74,16.93,8.08,4.99,16.52,9.33,25.23,13.1,7.01,3.04,13.13-7.29,6.06-10.36-7.62-3.31-15.04-7.03-22.19-11.26-3.57-2.11-7.07-4.35-10.5-6.69s-7.52-4.56-9.98-7.78l-8.21,8.21c5.07,3.38,10.68,5.59,16.17,8.2s10.48,6.29,15.45,10.06c4.44,3.36,9.31,6.88,14.89,7.97,5.23,1.02,11.29-.61,12.26-6.62,1.76-10.9-15.45-19.45-23.2-23.27-5.9-2.9-12.05-5.33-18.29-7.38-5.33-1.74-12.28-4.74-17.94-4.53-2.04.07-4.21,1.07-5.18,2.97-3.07,6-1.32,14.28,1.19,20.16,2.85,6.67,7.55,12.04,13.34,16.33,8.63,6.4,32.34,19.35,38.92,4.19,1.76-4.07-.24-8.97-5.18-9.03s-10.6,0-15.54-1.8c-5.25-1.92-9.5-6-13.51-9.75s-7.85-7.75-11.57-11.82c-1.86-2.04-3.7-4.1-5.52-6.17-1.61-1.83-4.67-4.15-5.23-6.54l-10.03,5.84c6.71,6.13,11.99,13.65,18.52,19.99s13.12,11.57,20.62,15.95c11.79,6.89,36.95,16.76,43.19-2.45,2.59-7.96-2.55-15.56-8.02-20.92-6.8-6.66-15.39-10.14-24.19-13.32-18.41-6.64-36.92-12.88-56.54-14.56-5.03-.43-6.81,5.3-5.18,9.03,5.19,11.84,12.56,22.42,20.33,32.69s17,18.47,27.48,26.27c5.41,4.03,12.6-5.18,7.27-9.42-3.83-3.05-7.31-6.45-10.19-10.41l-8.21,8.21c5.14,3.66,9.56,8.34,15.37,11.01s11.31,1.82,17.7,1.61l-1.6-11.79.04-.08-3.03,11.18c6.41-.59,12.82-1.09,19.24-1.51,4.11-.27,8.03-5.05,5.18-9.03-.07,2.38.34,2.52,1.25.41.65-.99,1.3-1.97,1.96-2.95,1.31-1.96,2.63-3.92,3.88-5.92,2.43-3.9,4.6-7.97,6.15-12.3,3.03-8.44,2.92-17.18-.79-25.34-3.19-7.02-13.54-.93-10.36,6.06h0Z"/>
      <path class="cls-1" d="M181.22,217.1c1.36,6.89,2.54,13.82,3.66,20.76.9,5.59,3.38,14.59.1,19.69l10.97,1.43c-.48-3.39-.55-6.84-.66-10.26-.21-6.81-9.72-8.09-11.79-1.6-.49,1.54-.98,3.08-1.47,4.62h11.57c-2.35-17.45-15.59-29.77-26.87-42.11l-4.24,10.24c3.62-.22,8.77,4.11,11.5,6.21,3.36,2.59,6.18,5.64,8.37,9.26,4.09,6.77,13.4.86,10.36-6.06-2.46-5.6-6.38-11.2-10.99-15.25s-10.11-5.78-14.31-9.78c-5.59-5.33-14.09,3.15-8.49,8.49,3.92,3.73,8.71,5.72,13.05,8.82,4.66,3.33,8.09,8.61,10.37,13.79l10.36-6.06c-3.28-5.43-7.59-9.81-12.68-13.57s-11.22-8.23-17.55-7.85c-5.24.32-7.84,6.3-4.24,10.24,9.99,10.92,21.71,21.36,23.78,36.81.85,6.29,9.96,5.08,11.57,0,.49-1.54.98-3.08,1.47-4.62l-11.79-1.6c.14,4.52.45,8.97,1.09,13.45.78,5.48,8.47,5.32,10.97,1.43,4.37-6.81,3.02-15.71,1.97-23.28-1.23-8.84-2.79-17.66-4.52-26.42-1.5-7.57-13.06-4.37-11.57,3.19h0Z"/>
      <path class="cls-1" d="M206.63,239.85c-2.56-9.42-3.64-18.84-3.33-28.59l-11.79,1.6c2.24,10.16,2.86,20.56,8.29,29.7,3.94,6.63,14.32.6,10.36-6.06-4.81-8.09-5.1-17.83-7.08-26.84-1.5-6.79-11.57-4.99-11.79,1.6-.34,10.74.94,21.41,3.76,31.78,2.02,7.44,13.6,4.28,11.57-3.19h0Z"/>
      <path class="cls-1" d="M210.92,228.49c-3.18-6.67-4.06-15.11-5.64-22.29-1.78-8.07-3.43-16.17-4.96-24.29-1-5.28-8.46-5.56-10.97-1.43-3.1,5.09-1.47,11.02-2.12,16.67-.7,6.16-2.83,11.89-6.05,17.15l10.36,6.06c1.08-1.98,2.21-3.93,3.6-5.71l-10.24-4.24c-.1,1.06-.22,2.12-.37,3.18-.43,3.24,3.06,5.97,6,6,3.59.04,5.58-2.8,6-6,.15-1.06.28-2.11.37-3.18.52-4.93-7.12-8.26-10.24-4.24-2.03,2.62-3.88,5.23-5.47,8.14-3.7,6.79,6.33,12.66,10.36,6.06,3.12-5.1,5.46-10.69,6.69-16.55.58-2.77.96-5.61,1.15-8.44.14-2.15-.79-7,.33-8.83l-10.97-1.43c1.65,8.74,3.44,17.46,5.38,26.15,1.74,7.77,3,16.06,6.44,23.29s13.67.89,10.36-6.06h0Z"/>
      <path class="cls-1" d="M179.51,132.01c-1.74,19.25,5.61,37.54,6.58,56.58.39,7.68,12.39,7.73,12,0-.97-19.02-8.31-37.42-6.58-56.58.69-7.69-11.31-7.64-12,0h0Z"/>
      <path class="cls-1" d="M180.98,146.9c.54,13.41,4.6,26.75,7.5,39.79,1.68,7.54,13.25,4.35,11.57-3.19-2.66-11.96-6.58-24.31-7.07-36.6-.31-7.7-12.31-7.74-12,0h0Z"/>
      <path class="cls-1" d="M129.85,189.61c2.68,11.51,10.64,19.74,18.52,28.08,3.8,4.02,7.49,8.37,11.77,11.89s9.21,5.71,13.38,9.34c5.8,5.05,14.33-3.41,8.49-8.49-3.61-3.14-7.28-5.65-11.36-8.11-4.38-2.65-7.72-6.74-11.23-10.42-7.21-7.56-15.54-14.95-17.99-25.48-1.75-7.52-13.32-4.34-11.57,3.19h0Z"/>
      <path class="cls-1" d="M134.57,188.2c7.01,10.41,14.96,20.1,23.87,28.93,4.66,4.61,13.69-1.71,9.42-7.27-1.5-1.95-2.99-3.91-4.49-5.86l-9.42,7.27.44.44c1.88,1.85,4.98,2.31,7.27.94l.26-.15c2.4-1.44,3.3-4.12,2.76-6.78l-.05-.24c-1.56-7.56-13.13-4.36-11.57,3.19l.05.24,2.76-6.78-.26.15,7.27.94-.44-.44c-4.66-4.6-13.69,1.7-9.42,7.27,1.5,1.95,2.99,3.91,4.49,5.86l9.42-7.27c-8.2-8.13-15.55-16.93-21.99-26.5-4.29-6.37-14.69-.37-10.36,6.06h0Z"/>
      <path class="cls-1" d="M122.48,156.9c3.08,10.09,5.27,20.39,6.37,30.89.79,7.59,12.75,7.71,12,0-.64-6.61-1.06-13.24-1.26-19.88l-11.79,1.6c1.52,7.39,3.62,14.57,7.68,21s13.8.83,10.36-6.06c-1.05-2.11-2.11-4.22-3.16-6.32l-10.36,6.06c.93,1.39,1.86,2.77,2.79,4.16,4.4,6.55,13.37.93,10.36-6.06-.82-1.9-1.7-3.74-2.67-5.56l-10.36,6.06.9,1.83,10.97-4.62c-.94-1.95-1.89-3.9-2.83-5.85l-10.36,6.06c.78,1.36,1.56,2.72,2.34,4.09,3.84,6.7,14.21.66,10.36-6.06-.78-1.36-1.56-2.72-2.34-4.09-3.88-6.78-13.7-.82-10.36,6.06.94,1.95,1.89,3.9,2.83,5.85,2.93,6.04,13.41,1.76,10.97-4.62-.63-1.66-1.26-3.14-2.1-4.7-3.68-6.8-13.99-.76-10.36,6.06.97,1.82,1.86,3.66,2.67,5.56l10.36-6.06c-.93-1.39-1.86-2.77-2.79-4.16-4.31-6.42-13.82-.87-10.36,6.06,1.05,2.11,2.11,4.22,3.16,6.32l10.36-6.06c-3.53-5.59-5.15-11.72-6.47-18.14s-11.99-5.13-11.79,1.6.62,13.26,1.26,19.88h12c-1.21-11.58-3.4-22.94-6.8-34.08-2.25-7.37-13.83-4.23-11.57,3.19h0Z"/>
      <path class="cls-1" d="M116.86,100.09c-5.16,19.32,1.38,38.12,5.65,56.9l11.57-3.19c-1.98-6.79-3.99-13.68-4.84-20.72s.31-13.74.1-20.68c-.23-7.7-12.23-7.74-12,0s-.85,14.95.14,22.56,2.92,14.78,5.03,22.03,13.28,4.33,11.57-3.19c-3.75-16.5-10.19-33.52-5.65-50.52,1.99-7.47-9.58-10.66-11.57-3.19h0Z"/>
      <path class="cls-1" d="M81.7,188.01c3.71,2.44,7.81,3.46,12.03,4.64,3.9,1.08,7.54,2.88,11.45,3.87,9.47,2.4,18.99,3.91,28.34,6.91,7.37,2.37,10.53-9.21,3.19-11.57-8.78-2.82-17.63-4.58-26.63-6.52-3.76-.81-7.15-2.41-10.79-3.57-3.97-1.27-8-1.78-11.54-4.11-6.47-4.26-12.49,6.13-6.06,10.36h0Z"/>
      <path class="cls-1" d="M161.01,216.32c-7.59-3.15-14.3-8.07-21.28-12.32s-14.48-7.74-22.16-10.67c-7.24-2.76-14.68-4.96-22.17-6.92-4.05-1.06-8.11-2.04-12.18-2.99-3.39-.79-7.29-2.38-10.63-.68-7.14,3.61-2.28,11.12,2.12,14.45,5.51,4.18,12.42,5.76,18.97,7.53,16.98,4.59,35,8.06,51.09,15.32,6.98,3.15,13.09-7.19,6.06-10.36-12.13-5.47-24.97-8.69-37.77-12.15-6.66-1.8-13.34-3.58-20-5.41-2.3-.63-4.67-1.22-6.89-2.13-1.25-.51-2.54-1.13-3.66-1.89l-1.01-.74c-1.26-1.54-1.42-1.25-.5.89l-2.97,5.18c-3.06,1.65,1.17,1.37,2.87,1.77s3.49.83,5.23,1.25c3.77.92,7.53,1.88,11.27,2.93,7.19,2.02,14.33,4.3,21.21,7.22,13.79,5.85,25.39,15.56,39.21,21.29,7.13,2.95,10.24-8.65,3.19-11.57h0Z"/>
      <path class="cls-1" d="M120.19,211.23c4.63,1.3,8.6,4.04,12.92,6.07s9.1,3.93,13.66,5.86c3.01,1.27,6.39.88,8.21-2.15,1.5-2.5.83-6.95-2.15-8.21-5.04-2.14-10.18-4.12-15.09-6.55s-9.19-5.14-14.36-6.59c-7.45-2.09-10.63,9.48-3.19,11.57h0Z"/>
      <path class="cls-1" d="M88.09,180.41c-2.32-3.37-6.18-5.25-9.48-7.57-3.85-2.71-7.62-5.55-11.27-8.52s-7.06-5.92-10.46-9.04c-2.89-2.66-5.74-5.84-10.05-4.29-2.77,1-4.07,2.95-4.4,5.79-.92,7.75,8.35,15.43,13.41,19.98,3.4,3.05,6.97,5.9,10.51,8.77,2.79,2.27,7.25,4.88,8.93,8.15l-.6-4.62-.07.47,4.19-4.19c-3.39.9-8.24-5.35-10.06-7.44-4.63-5.34-12.47,1.47-9.42,7.27,4.88,9.29,13.72,14.23,23.14,17.98,6.3,2.51,10.66-7.93,4.62-10.97-8.96-4.5-19.16-8.58-26.91-15.08-6.93-5.82-10.99-14-13.41-22.58-1.54-5.44-10.34-5.98-11.57,0-2.08,10.06,7.39,19.05,13.13,26.37,6.27,7.98,12.89,15.2,22.74,18.55,7.33,2.49,10.47-9.1,3.19-11.57-6.49-2.21-11.03-7.49-15.23-12.66-2.31-2.85-4.54-5.75-6.71-8.7-1.24-1.68-6-6.65-5.55-8.79h-11.57c2.82,9.98,7.61,19.71,15.32,26.83,8.64,7.98,20.12,12.77,30.51,17.99l4.62-10.97c-6.56-2.61-12.59-6.04-15.96-12.47l-9.42,7.27c5.06,5.84,13.29,12.78,21.73,10.53,1.82-.48,3.91-2.21,4.19-4.19,1.13-8.04-8.6-13.43-14.01-17.83-3.54-2.88-7.06-5.78-10.36-8.94-1.82-1.75-7.72-6.35-7.39-9.17l-4.4,5.79.69-.25-4.62-.6c2.82,1.61,5.34,4.82,7.81,6.96,2.79,2.41,5.65,4.74,8.55,7.01s5.68,4.37,8.6,6.46c1.25.89,2.51,1.78,3.77,2.64.76.52,1.52,1.04,2.29,1.55,1.82,1.34,2.03,1.38.61.13,4.35,6.32,14.76.33,10.36-6.06h0Z"/>
      <path class="cls-1" d="M37.23,61.53c7.72,0,7.73-12,0-12s-7.73,12,0,12h0Z"/>
      <path class="cls-1" d="M31.41,55.46c-4.94,18.32-7.19,37.38-6.38,56.35.4,9.27,1.51,18.53,3.27,27.64,1.65,8.52,3.8,16.53,9.38,23.36,4.57,5.6,12.18-1.53,9.42-7.27-6.39-13.31-10.97-27.88-12.59-42.6-.81-7.35-.63-14.63.64-21.92.62-3.55,1.31-7.09,1.98-10.63.33-1.77.67-3.54,1-5.31.16-.87,1.25-4.78.56-3.98l-4.24,1.76,1.03-.02-5.18-2.97c-.28-1.62-.43-1.28-.44,1.01l-.21,1.98c-.24,2.31-.48,4.61-.72,6.92-.45,4.28-.89,8.57-1.34,12.85-.8,7.67,11.21,7.62,12,0,.69-6.59,1.37-13.18,2.06-19.77.54-5.16.31-12.04-6.68-12.01-6.19.03-7.48,6.14-8.4,11.04-1.17,6.19-2.46,12.38-3.43,18.61-3.76,24.22,3.16,49.32,13.61,71.09l9.42-7.27c-4.57-5.6-5.58-13.95-6.8-20.83-1.49-8.4-2.26-16.91-2.45-25.44-.37-16.72,1.72-33.27,6.07-49.41,2.01-7.47-9.56-10.65-11.57-3.19h0Z"/>
      <path class="cls-1" d="M30.42,77.64c-2.44,18.19-1.06,36.33,2.46,54.29,3.06,15.62,11.07,29.8,22.88,40.48,5.72,5.17,14.23-3.29,8.49-8.49-10.99-9.94-17.52-22.51-20.14-37.03-2.96-16.39-3.91-32.7-1.69-49.25.43-3.24-3.07-5.97-6-6-3.6-.04-5.57,2.8-6,6h0Z"/>
      <path class="cls-1" d="M27.09,78.7c-3.31-7.29-5.61-15.16-6.61-23.11-.94-7.44.12-15.25-2.58-22.38-1.82-4.81-8.03-5.99-10.97-1.43-3.26,5.06-2.96,12.38-2.91,18.17.06,7.17.97,14.38,2.5,21.38,3.02,13.9,8.77,27.15,15.93,39.4l10.36-6.06c-6.71-9.84-9.74-21.17-12.68-32.57-1.75-6.8-11.36-4.96-11.79,1.6-1.64,25.47,12.08,47.53,19.55,70.99l10.97-4.62c-3.82-6.17-7.64-12.34-11.46-18.51-3.56-5.76-12.68-2.06-10.97,4.62,2.62,10.17,7.49,19.46,12.49,28.63l10.36-6.06C19.01,118.4,9.94,81.06,14.95,44.8l-11.79-1.6c-2.75,25.25.03,50.87,8.06,74.96,2.43,7.29,14.02,4.17,11.57-3.19-7.73-23.21-10.28-47.46-7.63-71.77.73-6.66-10.86-8.29-11.79-1.6-5.45,39.48,3.35,79.95,25.54,113.19,4.26,6.39,14.09.78,10.36-6.06-4.52-8.3-8.91-16.56-11.28-25.77l-10.97,4.62c3.82,6.17,7.64,12.34,11.46,18.51,3.47,5.61,13.1,2.06,10.97-4.62-7.1-22.3-20.67-43.62-19.12-67.8l-11.79,1.6c3.18,12.34,6.63,24.79,13.89,35.44,4.3,6.31,14.31.7,10.36-6.06-6.09-10.42-10.98-21.41-13.93-33.14-1.42-5.67-2.38-11.41-2.71-17.25-.25-4.48-1.42-12.51,1.12-16.44l-10.97-1.43c2.83,7.49,1.59,16.48,2.87,24.39,1.36,8.35,4.04,16.28,7.53,23.97,3.19,7.02,13.53.93,10.36-6.06h0Z"/>
      <path class="cls-1" d="M6.55,104c1.32,19.3,9.43,37.31,23.33,50.84,5.54,5.39,14.03-3.09,8.49-8.49-11.56-11.25-18.71-26.22-19.81-42.35-.52-7.66-12.53-7.72-12,0h0Z"/>
      <path class="cls-1" d="M17.23,136.76c4.04,7.88,8.71,15.35,14.02,22.43,4.58,6.11,15,.13,10.36-6.06-5.31-7.08-9.98-14.55-14.02-22.43-3.52-6.87-13.88-.81-10.36,6.06h0Z"/>
      <path class="cls-1" d="M29.01,155.66c.7.73,1.35,1.49,2,2.27l.38.48c-.26-.33-.26-.34-.01-.01.5.65.99,1.29,1.49,1.94,1.24,1.6,2.51,3.13,4.05,4.44,2.39,2.03,6.17,2.52,8.49,0,2.05-2.24,2.55-6.31,0-8.49-3.47-2.96-4.63-5.73-7.9-9.1-2.19-2.26-6.32-2.36-8.49,0s-2.33,6.08,0,8.49h0Z"/>
      <path class="cls-1" d="M15.3,24.59c7.72,0,7.73-12,0-12s-7.73,12,0,12h0Z"/>
      <path class="cls-1" d="M7.76,23.53c-1.35,5.7-1.82,11.55-2.22,17.38h12c-.05-1.89,0-3.73.34-5.59.58-3.18-.87-6.47-4.19-7.38-3.07-.84-6.6,1.03-7.38,4.19l-.25,1.03c-1.84,7.5,9.73,10.7,11.57,3.19l.25-1.03-11.57-3.19c-.53,2.92-.84,5.81-.76,8.78.21,7.78,11.48,7.66,12,0,.32-4.79.68-9.51,1.79-14.19,1.78-7.51-9.79-10.71-11.57-3.19h0Z"/>
      <path class="cls-1" d="M317.77,223.1c1.34-5.76,2.67-11.52,4.01-17.29,1.75-7.52-9.29-10.59-11.57-3.19-1.52,4.92-3.41,9.61-5.77,14.18l10.97,4.62c.6-3.12,1.21-6.24,1.81-9.35,1.47-7.61-8.93-10.46-11.57-3.19-.73,2.01-1.46,4.02-2.19,6.03l-.94,2.58c-.72,1.61-.75,1.89-.08.85l8.21,8.21c6.06-12.35,10.99-25.18,14.64-38.45,2.09-7.61-8.82-10.23-11.57-3.19-1.75,4.5-3.51,9-5.26,13.49l11.57,3.19c2.79-13.93,7.24-27.41,11.76-40.86,2.27-6.74-7.34-10.02-10.97-4.62-4.01,5.98-6.3,12.78-8.43,19.6l11.57,3.19c1.35-4.6,3.37-8.62,6.12-12.54l-10.97-4.62c-1.44,7.45-2.88,14.91-4.32,22.36-1.45,7.49,9.67,10.77,11.57,3.19,1.97-7.86,3.94-15.71,5.91-23.57l-11.57-3.19c-5.26,21.38-8.96,43.08-11.21,64.98-.7,6.83,10.08,7.99,11.79,1.6,3.02-11.28,4.05-22.92,4.98-34.52h-12c1.07,11.43,1.21,22.86.4,34.31-.54,7.71,11.46,7.67,12,0,.8-11.45.67-22.88-.4-34.31-.72-7.67-11.38-7.76-12,0-.85,10.56-1.81,21.06-4.56,31.33l11.79,1.6c2.14-20.84,5.78-41.45,10.78-61.79,1.84-7.5-9.69-10.69-11.57-3.19-1.97,7.86-3.94,15.71-5.91,23.57l11.57,3.19c1.44-7.45,2.88-14.91,4.32-22.36,1.31-6.76-7.01-10.27-10.97-4.62-3.31,4.72-5.71,9.87-7.33,15.4-2.18,7.44,9.27,10.54,11.57,3.19,1.85-5.9,3.75-11.56,7.22-16.73l-10.97-4.62c-4.52,13.45-8.97,26.92-11.76,40.86-1.54,7.67,8.79,10.33,11.57,3.19,1.75-4.5,3.51-9,5.26-13.49l-11.57-3.19c-3.38,12.28-7.82,24.15-13.43,35.58-2.59,5.29,2.73,11.23,8.21,8.21s6.74-11.19,8.72-16.63l-11.57-3.19-1.81,9.35c-1.22,6.29,7.65,11.04,10.97,4.62,2.83-5.48,5.17-11.16,6.98-17.05l-11.57-3.19c-1.34,5.76-2.67,11.52-4.01,17.29-1.74,7.51,9.82,10.72,11.57,3.19h0Z"/>
      <path class="cls-1" d="M318.27,205.56c2.56,5.44,1.53,13.38,1.43,19.21-.12,6.68,10.25,8.26,11.79,1.6s3.01-13.67,2.63-20.69l-11.18,3.03c2.06,4.82,1.37,11.05,2.1,16.18.87,6.2,10.04,5.19,11.57,0,1.73-5.87,3.01-11.8,3.85-17.86.92-6.65-6.85-10.46-10.97-4.62l-.5.71c-4.46,6.32,5.94,12.32,10.36,6.06l.5-.71-10.97-4.62c-.84,6.06-2.12,11.99-3.85,17.86h11.57c-.94-6.64-.62-12.74-3.31-19.05-2.36-5.54-11.48-2.63-11.18,3.03.32,6.01-.86,11.67-2.2,17.5l11.79,1.6c.15-8.45.6-17.47-3.07-25.27-3.29-6.98-13.63-.9-10.36,6.06h0Z"/>
      <path class="cls-1" d="M331.42,156.94c1.01-4.24,2.02-8.47,3.02-12.71,1.8-7.58-9.04-10.44-11.57-3.19-1.59,4.56-2.84,9.17-3.75,13.92-1.45,7.58,9.01,10.52,11.57,3.19.92-2.63,1.84-5.26,2.75-7.89l-11.79-1.6c.39,3.25.44,6.38.15,9.64-.61,6.86,10.02,7.96,11.79,1.6.31-1.13.63-2.26.94-3.38l-11.79-1.6c.18.76.05,1.47-.39,2.14l11.79,1.6c-.3-7,2.21-14.4,2.72-21.45.57-7.83-11.09-7.48-12,0-.3,2.5-.8,4.95-1.37,7.41l11.79,1.6c.76-5.67,1.52-11.34,2.28-17.01.43-3.24-3.07-5.97-6-6-3.6-.04-5.57,2.8-6,6-.76,5.67-1.52,11.34-2.28,17.01-.9,6.72,10.28,8.11,11.79,1.6.81-3.51,1.36-7.02,1.8-10.6h-12c-.52,7.12-3.03,14.33-2.72,21.45s9.41,7.83,11.79,1.6c.66-1.74.9-3.47.82-5.33-.28-6.64-9.92-8.29-11.79-1.6-.31,1.13-.63,2.26-.94,3.38l11.79,1.6c.29-3.26.24-6.39-.15-9.64-.79-6.59-9.44-8.31-11.79-1.6-.92,2.63-1.84,5.26-2.75,7.89l11.57,3.19c.91-4.75,2.15-9.36,3.75-13.92l-11.57-3.19c-1.01,4.24-2.02,8.47-3.02,12.71-1.79,7.51,9.78,10.71,11.57,3.19h0Z"/>
      <path class="cls-1" d="M331.11,131.61c7.72,0,7.73-12,0-12s-7.73,12,0,12h0Z"/>
      <path class="cls-1" d="M331.11,128.54c7.72,0,7.73-12,0-12s-7.73,12,0,12h0Z"/>
      <path class="cls-1" d="M324.27,115.36c.5,10.18-.47,20.09-3.01,29.96-1.93,7.48,9.64,10.67,11.57,3.19,2.79-10.84,3.98-21.97,3.44-33.15-.37-7.69-12.38-7.73-12,0h0Z"/>
      <path class="cls-1" d="M324.56,117.26c11.35,30.93-8.34,62.83-5.73,94.36.63,7.64,12.64,7.71,12,0-2.73-32.86,17.25-64.99,5.3-97.55-2.64-7.19-14.24-4.08-11.57,3.19h0Z"/>
      <path class="cls-1" d="M379.49,93.56c-.16,39.81-11.8,88.83-48.52,110.71-6.63,3.95-.6,14.33,6.06,10.36,40.5-24.14,54.28-76.87,54.46-121.07.03-7.72-11.97-7.73-12,0h0Z"/>
      <path class="cls-1" d="M381.9,101.51c1.5,14.41,2.73,29.07-.01,43.41-2.31,12.07-6.71,23.59-13.01,34.13s-14.06,19.5-23.34,27.16c-10.85,8.96-23.78,14.73-36.54,20.38-7.05,3.12-.95,13.46,6.06,10.36,13.6-6.01,26.79-12.34,38.39-21.78,10.27-8.36,19.01-18.71,25.79-30.07s11.54-23.52,14.07-36.26c3.12-15.73,2.24-31.49.59-47.34-.79-7.6-12.8-7.69-12,0h0Z"/>
      <path class="cls-1" d="M383.41,144.16c-3.16,21.99-8.04,47.14-27.3,61-6.21,4.47-.23,14.88,6.06,10.36,22.2-15.98,29.11-42.42,32.81-68.17.46-3.23-.8-6.41-4.19-7.38-2.81-.81-6.92.99-7.38,4.19h0Z"/>
      <path class="cls-1" d="M364.61,217.64c10.71-4.6,22.42-6.3,33.8-8.34s22.33-4.69,32.91-9.35c9.46-4.17,19.01-9.46,25.38-17.81s9.46-18.99,11.9-29.25c1.78-7.51-9.79-10.71-11.57-3.19-2.16,9.12-4.51,19.07-10.75,26.38-6.42,7.52-16.96,12.21-26.09,15.5-20.09,7.24-41.89,7.22-61.64,15.7-7.08,3.04-.97,13.38,6.06,10.36h0Z"/>
      <path class="cls-1" d="M459.81,155.35c-.24,3.38-4.81,8.26-6.74,10.92-2.43,3.35-5.1,6.54-7.99,9.51-5.33,5.49-11.48,10.25-18.54,13.31-8.15,3.54-17.2,4.67-25.96,5.65-10.26,1.15-20.53,2.25-30.79,3.37l3.03,11.18c9.49-5.66,20.75-7.23,30.25-12.94,5.68-3.41,2.02-13.12-4.62-10.97-8,2.59-16.12,4.64-24.4,6.13l4.62,10.97c4.88-3.05,9.93-5.53,15.39-7.38,6.44-2.19,5.26-11.39-1.6-11.79-3.85-.22-7.59.2-11.33,1.15-7.66,1.95-4.25,12.7,3.19,11.57,31.66-4.81,63.03-21.41,73.77-53.4,2.46-7.34-9.12-10.49-11.57-3.19-9.39,27.97-38.23,40.9-65.39,45.02l3.19,11.57c2.76-.7,5.3-.89,8.14-.72l-1.6-11.79c-6.41,2.18-12.51,5-18.25,8.59s-1.95,12.15,4.62,10.97c8.28-1.5,16.4-3.54,24.4-6.13l-4.62-10.97c-9.48,5.69-20.73,7.27-30.25,12.94-4.75,2.83-3.17,11.86,3.03,11.18,11.73-1.28,23.48-2.44,35.19-3.88,10.52-1.29,20.87-3.2,30.37-8.11,8.14-4.21,15.34-10.39,21.34-17.28s14.45-16.2,15.1-25.5c.54-7.71-11.46-7.67-12,0h0Z"/>
      <path class="cls-1" d="M445.73,134.92c-8.14,13.01-16.42,26.13-28.46,35.92-5.57,4.53-11.72,8.39-16.66,13.65-4.01,4.27-8.78,12.41-1.54,16.5,5.8,3.28,14.85-2.33,19.74-5.24,6.95-4.13,13.69-8.73,19.98-13.82,11.35-9.18,20.7-21.05,24.33-35.39,1.61-6.36-7.85-10.92-10.97-4.62-.73,1.49-1.47,2.97-2.2,4.46-3.41,6.9,6.93,12.99,10.36,6.06.73-1.49,1.47-2.97,2.2-4.46l-10.97-4.62c-2.85,11.26-9.88,20.32-18.53,27.84-4.51,3.92-9.44,7.32-14.45,10.56-4.48,2.9-10.85,8.1-16.46,8.06l4.24,1.76-.71-.73,1.76,4.24c-.14-1.6,4.52-4.88,5.73-5.92,2.04-1.76,4.2-3.36,6.34-4.98,5.05-3.81,9.94-7.69,14.29-12.3,8.75-9.27,15.61-20.13,22.34-30.9,4.11-6.57-6.27-12.6-10.36-6.06h0Z"/>
      <path class="cls-1" d="M465.45,152.72c-8.4,15.49-18.62,32.13-36.09,38.38-7.22,2.58-4.11,14.18,3.19,11.57,20.71-7.41,33.18-25.33,43.26-43.9,3.68-6.79-6.67-12.85-10.36-6.06h0Z"/>
      <path class="cls-1" d="M459.78,47.43c3.15,13.6,4.58,27.36,4.37,41.31-.12,7.72,11.88,7.73,12,0,.22-14.99-1.41-29.9-4.8-44.5-1.74-7.52-13.32-4.34-11.57,3.19h0Z"/>
      <path class="cls-1" d="M463.78,55.32c2.73,17.52,4.9,35.18,6.03,52.89,1.02,15.93.92,32.61-5.53,47.52l10.97,4.62c3.59-8.88,6.36-18,8.33-27.38l-11.79-1.6c-.08,1.05-.28,2.07-.6,3.07l11.79,1.6-.14-1.32c-.83-7.59-12.84-7.68-12,0l.14,1.32c.69,6.31,9.98,8.64,11.79,1.6.53-2.08.83-4.13,1.03-6.26.63-6.71-10.41-8.19-11.79-1.6-1.96,9.38-4.74,18.49-8.33,27.38-2.52,6.25,8.27,10.86,10.97,4.62,7.13-16.48,8.29-34.07,7.27-51.82-1.12-19.36-3.59-38.69-6.57-57.83-1.18-7.61-12.75-4.38-11.57,3.19h0Z"/>
      <path class="cls-1" d="M458.79,50.1c1.98,34.61,3.39,69.78-5.48,103.62-1.67,6.39,7.82,10.86,10.97,4.62,4.02-7.95,6.34-16.38,8.46-24.99l-11.79-1.6c-.87,6.86-1.74,13.72-2.6,20.58-.85,6.69,10.41,8.17,11.79,1.6,1.26-6.04,2.53-12.12,3.06-18.28.39-4.54-.34-9.48-4.87-11.69-2.92-1.42-6.47-.81-8.21,2.15-2.25,3.82-4.73,7.4-7.63,10.75l10.03,5.84c1.6-5.87,3.42-11.66,5.47-17.39,2.36-6.6-7.48-10.2-10.97-4.62-2.47,3.95-4.94,7.9-7.41,11.85l10.97,4.62c1.5-3.58,2.69-7.19,3.62-10.96,1.59-6.4-7.72-10.85-10.97-4.62-1.99,3.81-3.97,7.62-5.96,11.44l10.97,4.62c1.02-2.58,1.89-5.19,2.63-7.87,1.74-6.35-8.01-10.94-10.97-4.62-1.01,2.17-2.03,4.33-3.04,6.5-2.59,5.54,2.64,10.85,8.21,8.21l.23-.11c3.02-1.43,3.56-5.54,2.15-8.21l-.17-.33c-1.41-2.68-5.65-3.98-8.21-2.15-1,.71-1.88,1.35-2.54,2.43l-.6,1.43c-.38,1.18-.07.76.91-1.27-5.8,5.12,2.71,13.58,8.49,8.49,1.26-1.11,1.74-2.48,2.17-4.02l-2.76,3.59.38-.27-8.21-2.15.17.33,2.15-8.21-.23.11,8.21,8.21c1.01-2.17,2.03-4.33,3.04-6.5l-10.97-4.62c-.74,2.68-1.61,5.28-2.63,7.87-2.51,6.33,7.85,10.6,10.97,4.62,1.99-3.81,3.97-7.62,5.96-11.44l-10.97-4.62c-.93,3.77-2.13,7.38-3.62,10.96-2.7,6.47,7.51,10.15,10.97,4.62,2.47-3.95,4.94-7.9,7.41-11.85l-10.97-4.62c-2.05,5.73-3.87,11.52-5.47,17.39-1.5,5.51,5.99,10.52,10.03,5.84,3.56-4.12,6.75-8.48,9.51-13.18l-8.21,2.15c-.69-1.95-1-2.32-.92-1.12,0,.82-.04,1.64-.15,2.45-.14,1.65-.39,3.29-.65,4.93-.55,3.41-1.27,6.78-1.98,10.16l11.79,1.6c.87-6.86,1.74-13.72,2.6-20.58s-10.2-8.05-11.79-1.6c-1.86,7.56-3.73,15.14-7.25,22.12l10.97,4.62c9.15-34.9,7.95-71.12,5.91-106.81-.44-7.68-12.44-7.73-12,0h0Z"/>
      <path class="cls-1" d="M457.05,54.7c-.82,17.21-2.09,34.57-5.35,51.51-3.16,16.44-8.84,32.17-14.59,47.85-2.66,7.26,8.93,10.39,11.57,3.19,5.97-16.28,11.82-32.62,14.94-49.73,3.18-17.4,4.59-35.17,5.42-52.82.37-7.72-11.63-7.7-12,0h0Z"/>
      <path class="cls-1" d="M490.36,10.64l-.04-2.66h-12c2.02,18.57,4.98,37.88.25,56.23-2.37,9.2-4.76,18.09-5.31,27.63s-.37,19-.27,28.48c.04,3.85-.58,8.57.88,12.22s5.56,5.95,9.36,4.35,5.14-6.16,6.48-9.6c1.58-4.06,2.7-8.27,3.69-12.5,4.27-18.38,8.04-37.28,8.29-56.21.26-19.29-3.61-38.82-13.72-55.44-4.01-6.59-14.39-.57-10.36,6.06,10.42,17.13,13.04,37.19,11.79,56.92-.66,10.46-2.41,20.8-4.48,31.07-1.03,5.1-2.08,10.2-3.29,15.27-1.01,4.27-1.94,11.31-4.95,14.71l5.84-1.54-.95-.18,3.59,2.76c-.83-1.35-.13-5.33-.14-6.92-.03-2.57-.05-5.13-.06-7.7-.02-5.08-.01-10.17.09-15.26.21-10.49,2.23-19.95,4.89-30.05,5.24-19.88,2.61-40.17.42-60.31-.82-7.49-12.12-7.9-12,0l.04,2.66c.11,7.71,12.11,7.74,12,0h0Z"/>
      <path class="cls-1" d="M476.9,7.8c4.82,34.64,2.43,70.02-6.61,103.77-2,7.47,9.57,10.65,11.57,3.19,9.64-35.97,11.75-73.29,6.61-110.15-1.06-7.62-12.63-4.37-11.57,3.19h0Z"/>
      <path class="cls-1" d="M478.03,8.97c2.95,6.92,5.05,14.17,6.53,21.54s13.09,4.36,11.57-3.19c-1.7-8.46-4.36-16.48-7.74-24.41-1.28-3-5.65-3.61-8.21-2.15-3.1,1.77-3.42,5.25-2.15,8.21h0Z"/>
      <path class="cls-1" d="M190.2,328.66c-1.27,6.45-3.11,12.7-5.55,18.81-1.2,3.01,1.31,6.59,4.19,7.38,3.42.94,6.17-1.17,7.38-4.19,2.44-6.11,4.28-12.36,5.55-18.81,1.48-7.54-10.08-10.77-11.57-3.19h0Z"/>
      <path class="cls-1" d="M187.87,336.6c-3.64,8.83-7.11,17.73-10.41,26.69-2.67,7.26,8.92,10.39,11.57,3.19,3.3-8.97,6.77-17.86,10.41-26.69,2.94-7.13-8.66-10.24-11.57-3.19h0Z"/>
      <path class="cls-1" d="M181.78,342.94c-3.81,17.42-8.14,34.73-13.03,51.88-4.85,17.01-11.76,33.8-15.3,51.13-3.29,16.13-.85,31.42,9.46,44.49,9.98,12.65,24.4,20.3,38.46,27.54,17.96,9.25,35.49,19.24,52.55,30.08l6.06-10.36c-16.99-8.98-34.07-17.8-50.97-26.94-7.32-3.96-14.32-8.32-19.65-14.83-5.02-6.15-8.36-13.61-10.39-21.24-4.6-17.37-2.19-35.9,1.41-53.23,3.77-18.2,9.46-35.94,15.78-53.39,7.29-20.13,15.3-40.01,23.9-59.61l-10.97-4.62c-10.28,36.27-25.06,71.29-32.51,108.34-3.57,17.74-6.37,36.6-2.57,54.52s15.17,32.13,26.75,45.51l8.49-8.49c-11.3-10.6-29.04-18.5-34.67-33.92-3.2-8.77-.77-18.9.95-27.73,1.9-9.78,4.24-19.47,6.57-29.15,8.31-34.46,19.22-69.97,45.44-95.25l-9.42-7.27c-8.15,15.23-16.29,30.79-19.19,48-1.08,6.41,7.27,10.82,10.97,4.62,9.48-15.85,18.95-31.7,28.43-47.56l-10.36-6.06c-9.57,17.43-19.07,35.14-23.74,54.61-1.14,4.75,4.27,9.87,8.81,6.78,9.07-6.17,13.13-17.19,18.01-26.58,5.93-11.42,11.85-22.84,17.78-34.26,3.54-6.83-6.52-12.81-10.36-6.06-6.13,10.78-11.45,21.97-15.95,33.52-3.29,8.44-11.4,22.96-1.69,29.72,2.66,1.85,6.68.48,8.21-2.15,10.81-18.61,21.1-37.51,30.86-56.7,3.52-6.92-6.03-12.45-10.36-6.06-6.92,10.22-12.82,21.03-17.63,32.4s-9.5,23.23-9.2,35.6c.15,6.4,7.73,7.56,11.18,3.03,14.88-19.59,26.77-41.06,35.8-63.93,2.19-5.55-6.25-10.26-10.03-5.84-8.22,9.64-14.7,20.3-19.37,32.09-2.22,5.61-3.95,11.43-5.14,17.34-1,4.96-2.56,11.4,2.15,15.03s9.74.27,12.83-3.74c4.04-5.24,7.79-10.67,11.21-16.33,6.84-11.32,12.27-23.46,16.45-36,1.07-3.21-1.25-6.38-4.19-7.38-7.27-2.47-12.34,3.44-16.24,8.71-4.24,5.74-7.88,11.91-10.83,18.4s-5.38,13.13-6.96,20.03c-1.25,5.48-1.49,12.24,4.41,15.1,2.25,1.09,5.48,1.17,7.27-.94,14.49-17.06,25.85-36.13,34.01-56.96,1.14-2.91-1.27-6.74-4.19-7.38-7.09-1.54-12.09,2.53-16.06,8.02-4.65,6.42-8.68,13.39-12.27,20.45s-6.46,13.75-9.04,20.88-4.98,13.65-1.41,20.56c1.64,3.18,7.05,4.17,9.42,1.21,14.63-18.22,26.78-38.09,35.99-59.58,2.15-5.01-2.6-11.78-8.21-8.21-10.27,6.53-17.05,16.46-22.17,27.31-5.04,10.69-11.98,23.39-6.38,35.07,1.54,3.22,7.13,4.14,9.42,1.21,14.17-18.07,25.6-37.7,34.32-58.95,2.3-5.61-6.21-10.09-10.03-5.84-14.37,16.01-24.33,35.42-28.58,56.54-.48,2.36.26,5.68,2.76,6.78,6.04,2.64,9.93-.36,13.69-5.02,4.06-5.04,7.86-10.28,11.29-15.77,6.74-10.8,12.03-22.46,15.99-34.55,1.93-5.89-5.89-9.82-10.03-5.84-9.58,9.21-17.53,20.17-23,32.29-2.63,5.82-4.82,11.82-6.37,18.01-1.32,5.29-2.22,12.28,3.73,15.14,7.26,3.48,11.57-4.34,14.77-9.39,4.11-6.48,8.16-13,12.14-19.57s7.9-13.16,11.74-19.8c3.25-5.61,7.73-12.15,3.58-18.49-2.01-3.07-6.71-4.23-9.42-1.21-15.33,17.02-24.7,37.8-27.7,60.47-.33,2.48,2.09,5.24,4.4,5.79,5.61,1.31,9.95-1.49,13.17-5.96,3.95-5.5,7.24-11.64,10.64-17.49,6.27-10.78,14.54-22.45,14.57-35.39.01-6.5-7.79-7.43-11.18-3.03-7.48,9.71-13.13,20.73-16.62,32.49-2.43,8.16-8.2,25.1,3.19,28.87,2.6.86,5.38-.6,6.78-2.76,9.89-15.25,19.74-30.98,23.32-49.06,1.34-6.8-7-10.21-10.97-4.62-10.44,14.69-15.8,32.38-15.53,50.38.09,6.17,7.93,7.88,11.18,3.03,10.38-15.47,17.4-32.97,20.53-51.33,1.05-6.14-7.86-11.28-10.97-4.62-7.53,16.14-11.32,33.49-10.81,51.32.16,5.49,8.58,8.77,11.18,3.03,7.09-15.61,10.99-32.12,11.39-49.28.16-6.98-9.72-7.86-11.79-1.6-5.19,15.71-7.56,32.2-7.01,48.74.22,6.66,9.95,8.28,11.79,1.6,4.61-16.82,7.52-34.02,8.82-51.42l-11.79,1.6c1.29,5.7,1.51,11.34.9,17.14h12c.59-6.09,1.18-12.18,1.77-18.27.75-7.73-11.12-7.55-12,0-1.82,15.59.91,30.91,7.31,45.18,3.15,7.03,13.5.94,10.36-6.06-5.53-12.34-7.23-25.75-5.67-39.13h-12c-.59,6.09-1.18,12.18-1.77,18.27-.75,7.7,11.21,7.6,12,0,.71-6.87.19-13.6-1.33-20.33s-11.3-4.84-11.79,1.6c-1.22,16.34-4.06,32.43-8.39,48.23l11.79,1.6c-.51-15.57,1.69-30.77,6.58-45.55l-11.79-1.6c-.35,14.93-3.57,29.6-9.75,43.22,3.73,1.01,7.45,2.02,11.18,3.03-.44-15.64,2.55-31.06,9.17-45.26l-10.97-4.62c-2.98,17.47-9.45,33.75-19.32,48.46l11.18,3.03c-.25-16.07,4.59-31.23,13.89-44.32l-10.97-4.62c-3.38,17.13-12.74,31.76-22.11,46.2l6.78-2.76c1.61,2.32,2.31,2.55,2.12.68.11-1.13.27-2.26.46-3.38.35-2.2.8-4.39,1.32-6.56.97-4.07,2.22-8.08,3.73-11.98,3.15-8.11,7.68-15.62,12.98-22.5l-11.18-3.03c-.02,9.11-6.18,17.56-10.54,25.19-2.37,4.15-4.79,8.28-7.26,12.37-1.32,2.18-2.62,4.38-4,6.52-.52.9-1.09,1.77-1.71,2.61-1.2.89-1.09,1.08.32.58l4.4,5.79c2.55-19.3,11.19-37.55,24.18-51.98l-9.42-1.21c.68,1.04-6.06,10.64-6.96,12.18-2.75,4.69-5.54,9.36-8.36,14s-5.67,9.28-8.56,13.88c-1.53,2.44-3.06,4.87-4.61,7.3-.27.43-2.2,2.82-2.07,3.23l5.79,1.89c.03-.31.09-.61.19-.91.96-1.45,1.1-4.48,1.6-6.19.68-2.3,1.43-4.58,2.28-6.82,1.6-4.25,3.58-8.35,5.8-12.31,4.62-8.21,10.38-15.5,17.16-22.02l-10.03-5.84c-2.94,8.97-6.68,17.59-11.31,25.82-2.23,3.96-4.63,7.81-7.21,11.55-1.3,1.89-2.65,3.76-4.05,5.58-.91,1.18-2.88,4.73-4.38,5.07l4.62.6-1.02-.45,2.76,6.78c3.84-19.1,12.46-36.72,25.49-51.24l-10.03-5.84c-7.87,19.18-18.44,37.34-31.23,53.65l9.42,1.21c-1.96-4.08.66-9.49,2.2-13.31,1.69-4.18,3.48-8.34,5.51-12.37,3.99-7.94,8.92-15.43,16.54-20.28l-8.21-8.21c-8.77,20.47-20.16,39.77-34.11,57.15l9.42,1.21c-1.6-3.1,2.11-9.97,3.23-12.97,1.88-5.04,4.03-9.96,6.42-14.78,2.23-4.49,4.65-8.88,7.26-13.15,1.03-1.68,6.22-11.83,8.32-11.38l-4.19-7.38c-7.36,18.78-17.87,36.29-30.92,51.67l7.27-.94c.57,1.09.81,1.13.73.12.24-1.12.5-2.23.78-3.33.42-1.66.88-3.31,1.39-4.94,1.28-4.14,2.82-8.19,4.68-12.11,1.71-3.61,3.64-7.11,5.76-10.49.68-1.07,5.93-9.92,7.03-9.55l-4.19-7.38c-3.04,9.12-6.79,17.92-11.37,26.37-2.2,4.06-4.57,8.03-7.09,11.9-1.26,1.93-2.57,3.84-3.91,5.72-.67.94-1.35,1.87-2.04,2.8-.36.49-.73.98-1.11,1.46-1.2,1.18-.6,1.36,1.83.52l3.59,2.76c-.94-1.24,1.73-9.09,2.34-11.3,1.26-4.52,2.81-8.98,4.73-13.26,3.84-8.55,8.88-16.55,14.96-23.68l-10.03-5.84c-8.63,21.86-20.37,42.36-34.59,61.07l11.18,3.03c-.27-11.24,4.47-22.61,8.94-32.74s9.99-19.95,16.25-29.19l-10.36-6.06c-9.76,19.18-20.05,38.09-30.86,56.7l8.21-2.15c.9,1.89,1.4,1.96,1.5.2.36-1.16.73-2.32,1.1-3.48.75-2.31,1.54-4.62,2.36-6.91,1.47-4.09,3.04-8.15,4.75-12.15,3.59-8.4,7.72-16.55,12.24-24.48l-10.36-6.06c-5.33,10.28-10.67,20.55-16,30.83-2.52,4.85-5.03,9.71-7.55,14.56-2.07,3.99-4.09,8.54-7.92,11.14l8.81,6.78c4.44-18.52,13.44-35.17,22.53-51.75,3.72-6.77-6.39-12.7-10.36-6.06-9.48,15.85-18.95,31.7-28.43,47.56l10.97,4.62c2.74-16.27,10.28-30.74,17.98-45.14,3.19-5.96-4.43-12.09-9.42-7.27-21.78,21-34.23,49.12-42.56,77.77-4.51,15.52-8.24,31.34-11.57,47.15-3.12,14.85-6.83,31.1.86,45.17,7.94,14.53,23.3,21.98,34.97,32.94,5.69,5.34,13.51-2.68,8.49-8.49-11.09-12.82-21.79-26.56-24.32-43.82s1-35.13,4.78-51.75c7.83-34.43,21.35-67.2,30.96-101.12,1.8-6.34-8.17-10.99-10.97-4.62-15.98,36.44-31.78,74.11-40.29,113.11-7.59,34.76-9.17,77.26,23.73,99.78,9.19,6.29,19.57,11.01,29.4,16.2,10.46,5.53,20.93,11.06,31.39,16.58,6.84,3.61,12.59-6.21,6.06-10.36-13.89-8.83-28.1-17.15-42.62-24.9-13.49-7.19-28.37-13.33-39.64-23.94-11.45-10.78-15.83-24.24-12.68-39.73,3.34-16.41,9.86-32.29,14.51-48.37,5.22-18.05,9.81-36.28,13.83-54.63,1.65-7.53-9.92-10.74-11.57-3.19h0Z"/>
      <path class="cls-1" d="M317.23,332.91c4.18,9.91,8.7,19.76,12.48,29.83,3.74,9.98,3.82,20.03,4,30.54.35,21.23,7.92,40.49,14.54,60.4,2.43,7.29,14.02,4.17,11.57-3.19-3.31-9.95-6.81-19.87-9.87-29.9-3.14-10.3-4.16-20.25-4.29-30.97-.12-9.95-.64-19.8-4.08-29.23-3.78-10.38-8.49-20.48-12.78-30.66-1.27-3.01-3.95-5.09-7.38-4.19-2.82.74-5.45,4.4-4.19,7.38h0Z"/>
      <path class="cls-1" d="M341.28,420.11c2.08,8.34,4.16,16.69,6.25,25.03,1.8,7.23,4.11,14.6,4.49,22.09.71,13.95-6.79,26.33-17.06,35.23-22.56,19.53-55.15,22.11-81.28,34.97-6.98,3.44-.87,13.54,6.06,10.36,57.73-26.44,68.52-98.67,66.71-155.07-.3-9.22-.87-18.42-1.57-27.61s-1.98-18.19-1.11-27.28l-11.79,1.6c8.14,30.05,12.1,61.86,7.47,92.84-2.31,15.48-6.75,30.57-13.42,44.74-7.09,15.04-15.53,29.46-23.5,44.04-2.38,4.35,1.61,10.54,6.78,8.81,14.37-4.8,23.89-16.5,29.68-30.09,6.21-14.59,9.75-30.57,12.45-46.14,5.66-32.55,7.06-66.38-.24-98.78-1.71-7.58-13.02-4.33-11.57,3.19,10.17,52.69,15.72,115.35-23.34,158.33-3.44,3.78-1.13,10.22,4.24,10.24,10,.03,17.78-7.72,24.54-14.25s12.83-14.11,16.44-22.94c3.87-9.47,4.45-19.86,4.47-29.98.02-12.22-.81-24.41-2.34-36.53l-11.79,1.6c4.45,25.57-6.57,50.39-16.79,73.16-3.11,6.93,6.92,13.07,10.36,6.06,3.72-7.57,7.78-14.94,12.19-22.13l-10.97-4.62c-2.63,9.78-4.73,19.66-6.31,29.66-.71,4.52,2.59,8.48,7.38,7.38,13.21-3.04,18.71-17.74,21.27-29.58,3.22-14.89,2.46-30.16.52-45.16l-11.79,1.6c5.07,15.8,4.08,32.82-3.3,47.75-3.4,6.86,6.59,12.88,10.36,6.06,5.01-9.07,7.77-18.81,8.38-29.15l-11.79,1.6c.81,5.36.43,10.72-.85,15.97l11.57,3.19c.84-4.14,1.68-8.28,2.52-12.42,1.53-7.54-10.03-10.76-11.57-3.19-.84,4.14-1.68,8.28-2.52,12.42-1.52,7.5,9.73,10.75,11.57,3.19s2-14.76.85-22.35c-1.06-7.01-11.41-4.78-11.79,1.6-.48,8.2-2.77,15.91-6.74,23.1l10.36,6.06c8.79-17.76,10.59-38.07,4.51-57-1.95-6.07-12.69-5.44-11.79,1.6,1.56,12.1,2.58,24.52.86,36.66-1.19,8.43-3.82,24.2-13.84,26.5,2.46,2.46,4.92,4.92,7.38,7.38,1.58-10,3.68-19.89,6.31-29.66,1.78-6.62-7.4-10.42-10.97-4.62-4.42,7.19-8.48,14.56-12.19,22.13l10.36,6.06c11.73-26.11,23.09-53.21,18-82.41-1.15-6.58-12.64-5.13-11.79,1.6,1.24,9.83,2.04,19.7,2.27,29.6.21,9.02.47,18.44-1.8,27.25-2.05,7.99-6.54,14.75-12.15,20.71-2.56,2.72-5.29,5.27-8.09,7.73-3.25,2.85-6.76,6.43-11.34,6.41l4.24,10.24c42.28-46.51,37.49-112.69,26.43-170l-11.57,3.19c6.52,28.98,5.56,59.49.86,88.68-2.27,14.1-5.4,28.22-9.99,41.76-4.19,12.38-11.21,25.41-24.39,29.81l6.78,8.81c8.42-15.4,17.44-30.63,24.7-46.63,6.77-14.91,11.39-30.54,13.68-46.76,4.62-32.64.85-65.79-7.73-97.48-1.86-6.89-11.17-4.87-11.79,1.6-.93,9.7.53,19.5,1.25,29.18.71,9.51,1.27,19.04,1.51,28.57.5,19.67-.27,39.5-4.14,58.83-6.83,34.09-23.71,67.9-56.72,83.02l6.06,10.36c28.63-14.09,63.7-16.48,87.18-40.08,10.17-10.23,17.31-24,17.17-38.66-.08-8.55-2.45-16.93-4.5-25.17-2.24-8.99-4.48-17.97-6.73-26.96-1.87-7.49-13.44-4.32-11.57,3.19h0Z"/>
      <path class="cls-1" d="M303.61,358.25c6.7,63.72-12.05,129.32-52.28,179.34-4.73,5.88,2.89,14.08,8.49,8.49,18.24-18.23,30.57-40.95,39.95-64.77,10.08-25.63,18.76-53.04,20.3-80.69.43-7.78-11.32-7.59-12,0-1.83,20.42-4.56,40.78-9.52,60.7-2.39,9.58-5.28,19.04-8.8,28.26-3.32,8.71-7.18,17.32-14.08,23.79l10.03,5.84c8.12-27.09,10.44-55.3,14.75-83.13,2.16-13.94,5.28-27.86,5.72-42.01.22-6.97-.5-13.8-1.65-20.67-1.21-7.2-2.69-14.44-1.07-21.69l-11.79-1.6c.17,21.22-.19,42.43-1.07,63.63h12c.58-16,2.5-31.83,5.79-47.5h-11.57c2.25,11.22,3.37,22.52,3.46,33.96.06,7.73,11.82,7.72,12,0,.31-13.77-.44-27.49-2.25-41.14-.98-7.38-12.16-7.97-12,0,.67,32.88-3.86,65.51-11.97,97.34-6.63,26.04-14.96,53.92-36.69,71.47l10.03,5.84c10.56-28.44,20.4-57.26,26.71-86.98s7.84-61.07,8.66-91.98l-11.79,1.6c3.43,12.36,1.73,26.41,1.43,39.12-.31,13.08-.86,26.17-2.14,39.19-2.49,25.46-8.08,50.85-20.05,73.63l10.97,4.62c8.3-53.28,14.26-107.61,3.87-161.04l-10.97,4.62c4.5,7.68,7.38,15.77,8.91,24.54l11.57-3.19c-.64-3.58-1.02-7.15-1.21-10.78h-12c.61,8.67.54,17.32-.2,25.98l11.79-1.6c-3-11.4-6-22.79-8.99-34.19-1.49-5.67-10.12-5.76-11.57,0-3.47,13.79-1.38,28.55-2,42.64-.66,14.83-2.38,29.58-4.64,44.24-4.51,29.26-10.89,58.19-15.11,87.5-1.08,7.5,9.01,10.68,11.57,3.19,12.31-35.9,15.68-73.9,18.91-111.47h-12c2.18,29.11-3.97,57.61-10.97,85.69l11.79,1.6c.32-27.26,2.91-54.4,4.37-81.61.72-13.42,1.15-26.86.86-40.29-.27-12.6-2.61-25.88,1.37-38.09l-11.57-3.19c-7.22,29.42-11.12,59.37-12.64,89.6s-1.26,60.85-3.05,91.23l7.6-5.79c-3.29-1.1-2.47-8.82-2.44-11.38.1-7.18.23-14.35.37-21.53.28-14.36.65-28.72,1.28-43.06,1.25-28.77,3.55-57.51,8.2-85.95,1.25-7.63-8.77-10.44-11.57-3.19-15.3,39.64-10.27,82.56-9.33,123.99.24,10.78.19,21.57-.62,32.32-.09,1.25-1.21,5.62-.62,6.83l5.61-.12-.36-1.42c.02-1.05-.54-2.58-.73-3.68-.98-5.63-1.32-11.36-1.66-17.05-1.28-21.19-2.5-42.42-2.55-63.66-.06-24.49,1.55-48.97,6.71-72.96l-11.79-1.6c.34,7.41.1,14.82-.99,22.17s9.21,10.76,11.57,3.19c2.15-6.89,4.29-13.77,6.44-20.66l-11.79-1.6c-.63,10.22-2.29,20.22-4.92,30.11l11.79,1.6c-.34-13.57-1.79-27.06-4.27-40.41-.88-4.72-6.95-5.41-10.03-2.65-9.7,8.71-9.34,24.93-10.87,36.86-2.01,15.64-3.62,31.36-4.02,47.13-.81,31.41,5.25,61.6,12.42,92l10.03-5.84c-8.91-9.84-10.99-22.66-12.18-35.43-1.36-14.58-1.83-29.23-1.74-43.86.18-28.77,2.29-57.52,5.99-86.04.82-6.29-8.32-7.61-11.18-3.03-9.23,14.77-15.57,31.13-18.6,48.28-1.33,7.53,9.12,10.62,11.57,3.19,5.17-15.68,8.58-31.75,10.48-48.14.69-5.97-8.58-8.09-11.18-3.03-7.7,14.97-13.11,30.89-15.9,47.5-1.25,7.46,9.73,10.83,11.57,3.19,3.56-14.78,6.4-29.7,8.53-44.75,1.06-7.48-9.04-10.71-11.57-3.19-6.94,20.67-11.44,41.95-13.7,63.63-.81,7.73,11.06,7.52,12,0,2.02-16.22,4.63-32.36,7.75-48.41,1.5-7.72-8.69-10.26-11.57-3.19-5.87,14.38-9.9,29.35-11.99,44.74-1.95,14.32-3.5,30.11,2.22,43.78,2.48,5.94,11.58,5.66,11.79-1.6.45-16,.89-31.99,1.34-47.99.19-6.86-9.9-8.01-11.79-1.6-7.29,24.87-7.68,51.21-1.23,76.3,1.38,5.38,10.66,6.05,11.57,0,4.27-28.29,7.68-56.96,15.83-84.47l-11.57-3.19c-5.38,26.67-10.71,53.88-7.34,81.17.75,6.04,10.47,8.91,11.79,1.6,4.7-26.12,9.4-52.24,14.1-78.36,1.35-7.49-9.35-10.71-11.57-3.19-4.64,15.69-7.74,31.8-9.21,48.1-1.42,15.67-1.36,31.82,4.33,46.71,2.27,5.93,12.01,5.65,11.79-1.6-.64-20.71-1.46-41.39-4.65-61.89-1.1-7.08-11.29-4.7-11.79,1.6-2.11,26.95,1.73,54.16,11.25,79.46,2.67,7.1,13.66,4.4,11.57-3.19-4.89-17.79-12.82-34.58-23.58-49.58-3.84-5.36-12.66-2.31-10.97,4.62,4.24,17.31,11.21,33.81,20.67,48.91,3.47,5.54,13.25,2.06,10.97-4.62-5.27-15.42-13.31-29.39-23.98-41.71-4.17-4.82-11.23.41-10.03,5.84,2.5,11.25,6.81,21.97,12.74,31.86,3.39,5.64,13.27,1.99,10.97-4.62-3.92-11.23-9.08-21.89-15.61-31.84-3.58-5.45-13.11-2.16-10.97,4.62,3,9.52,6.91,18.7,11.69,27.46,2.86,5.25,11.25,2.84,11.18-3.03-.68-61.02,34.78-114.49,44.31-173.66l-11.79-1.6c2.63,43.57-17.88,92.35,9.17,131.9,4.33,6.34,14.74.34,10.36-6.06-25.34-37.05-5.06-84.9-7.53-125.84-.38-6.31-10.65-8.66-11.79-1.6-9.71,60.33-45.43,114.54-44.74,176.85l11.18-3.03c-4.3-7.89-7.77-16.03-10.48-24.6l-10.97,4.62c5.97,9.08,10.82,18.7,14.41,28.97l10.97-4.62c-5.44-9.06-9.24-18.67-11.53-28.99l-10.03,5.84c9.25,10.69,16.32,23.04,20.89,36.41l10.97-4.62c-8.95-14.29-15.45-29.67-19.46-46.04l-10.97,4.62c10.2,14.21,17.73,29.84,22.37,46.71l11.57-3.19c-9.19-24.44-12.86-50.25-10.82-76.27l-11.79,1.6c3.02,19.42,3.61,39.09,4.22,58.7l11.79-1.6c-5.34-13.98-5.23-28.81-3.9-43.52,1.38-15.23,4.45-30.25,8.79-44.91l-11.57-3.19c-4.7,26.12-9.4,52.24-14.1,78.36l11.79,1.6c-3.25-26.3,1.72-52.28,6.91-77.98,1.51-7.51-9.36-10.67-11.57-3.19-8.15,27.5-11.57,56.18-15.83,84.47h11.57c-5.93-23.08-5.47-47.06,1.23-69.92l-11.79-1.6c-.45,16-.89,31.99-1.34,47.99l11.79-1.6c-5.32-12.73-3.74-27.59-1.71-40.91,2.15-14.17,6.08-27.98,11.49-41.23l-11.57-3.19c-3.32,17.1-6.02,34.31-8.18,51.6h12c2.15-20.59,6.68-40.82,13.27-60.44l-11.57-3.19c-2.12,15.05-4.97,29.97-8.53,44.75l11.57,3.19c2.62-15.59,7.47-30.57,14.7-44.64l-11.18-3.03c-1.77,15.3-5.22,30.33-10.05,44.95l11.57,3.19c2.87-16.22,8.66-31.44,17.4-45.41l-11.18-3.03c-3.95,30.45-6.13,61.19-5.99,91.9.07,15.07.65,30.23,2.51,45.2,1.71,13.73,5.49,26.3,14.93,36.73,4.2,4.64,11.33-.3,10.03-5.84-6.62-28.07-12.42-55.89-12.07-84.88.18-14.46,1.44-28.88,3.13-43.23.82-6.98,1.75-13.95,2.73-20.91.77-5.44,1.28-11.44,5.59-15.3l-10.03-2.65c2.28,12.31,3.53,24.71,3.84,37.22.16,6.66,10.01,8.28,11.79,1.6,2.89-10.91,4.65-22.04,5.34-33.3.43-6.96-9.83-7.86-11.79-1.6-2.15,6.89-4.29,13.77-6.44,20.66l11.57,3.19c1.26-8.44,1.82-16.83,1.42-25.36-.3-6.46-10.3-8.51-11.79-1.6-10.12,47.09-7.6,95.84-4.35,143.55.38,5.52.9,11.04,1.86,16.5.88,4.98,2.22,10.55,7.59,12.37,12.11,4.12,11.84-13,12.28-20.11,1.56-24.76-.66-49.53-1.13-74.29-.49-25.74,1.09-51.66,10.45-75.91l-11.57-3.19c-5.25,32.08-7.73,64.5-8.95,96.96-.61,16.31-.93,32.63-1.21,48.94-.18,10.97-1.87,26.42,11.12,30.78,3.91,1.31,7.38-2.12,7.6-5.79,1.75-29.73,1.53-59.53,2.95-89.27,1.42-29.85,5.18-59.32,12.31-88.37,1.85-7.53-9.18-10.52-11.57-3.19-3.96,12.14-2.31,24.84-1.9,37.35.46,14.09.08,28.19-.65,42.26-1.43,27.86-4.14,55.66-4.47,83.57-.08,6.71,10.13,8.22,11.79,1.6,7.23-29.04,13.65-58.78,11.39-88.88-.58-7.74-11.34-7.7-12,0-3.14,36.56-6.51,73.36-18.48,108.28l11.57,3.19c4.22-29.31,10.6-58.24,15.11-87.5,2.23-14.45,4.04-28.99,4.87-43.6.4-7.04.56-14.09.45-21.14-.11-7.45-.52-14.86,1.31-22.15h-11.57c3,11.4,6,22.79,8.99,34.19,1.81,6.87,11.23,4.89,11.79-1.6.74-8.66.8-17.31.2-25.98-.53-7.64-12.41-7.76-12,0,.25,4.7.81,9.34,1.64,13.97,1.35,7.6,12.88,4.37,11.57-3.19-1.69-9.7-5.14-18.91-10.12-27.41-3.57-6.1-12.23-1.88-10.97,4.62,9.96,51.16,4.08,103.66-3.87,154.66-.97,6.2,7.54,11.15,10.97,4.62,12.74-24.23,18.73-50.88,21.52-77.96,1.4-13.6,1.99-27.26,2.31-40.92.32-13.87,1.9-28.79-1.86-42.31-1.83-6.58-11.61-5.16-11.79,1.6-.8,30.49-2.14,60.74-8.63,90.64-6.31,29.07-15.98,57.28-26.31,85.13-2.31,6.23,5.9,9.17,10.03,5.84,22.76-18.37,32.23-47.61,39.31-74.92,8.65-33.38,13.58-67.85,12.87-102.38h-12c1.82,13.65,2.57,27.37,2.25,41.14h12c-.1-12.49-1.43-24.9-3.88-37.15-1.15-5.75-10.37-5.7-11.57,0-3.51,16.69-5.6,33.64-6.22,50.69-.28,7.73,11.68,7.7,12,0,.89-21.2,1.24-42.41,1.07-63.63-.05-6.6-10.27-8.36-11.79-1.6-3.08,13.78,2.07,26.95,2.33,40.71.27,14.73-3.08,29.18-5.33,43.65-4.32,27.83-6.63,56.04-14.75,83.13-1.78,5.93,5.79,9.81,10.03,5.84,7.13-6.68,11.54-15.22,15.21-24.14,4.19-10.2,7.56-20.73,10.3-31.41,5.51-21.51,8.42-43.6,10.4-65.69h-12c-1.44,25.97-9.92,51.82-19.26,75.94-8.68,22.42-20.35,43.92-37.47,61.03l8.49,8.49c42.17-52.44,62.84-120.79,55.79-187.83-.8-7.6-12.81-7.68-12,0h0Z"/>
    </g>
  </g>
</svg>